<?xml version="1.0" encoding="utf-8"?>
<svg xmlns="http://www.w3.org/2000/svg" xmlns:xlink="http://www.w3.org/1999/xlink" width="600" height="400" viewBox="0 0 2400 1600">
<defs>
  <clipPath id="clip950">
    <rect x="0" y="0" width="2400" height="1600"/>
  </clipPath>
</defs>
<path clip-path="url(#clip950)" d="M0 1600 L2400 1600 L2400 0 L0 0  Z" fill="#ffffff" fill-rule="evenodd" fill-opacity="1"/>
<defs>
  <clipPath id="clip951">
    <rect x="480" y="0" width="1681" height="1600"/>
  </clipPath>
</defs>
<path clip-path="url(#clip950)" d="M102.74 1505.26 L2352.76 1505.26 L2352.76 62.9921 L102.74 62.9921  Z" fill="#ffffff" fill-rule="evenodd" fill-opacity="1"/>
<defs>
  <clipPath id="clip952">
    <rect x="102" y="62" width="2251" height="1443"/>
  </clipPath>
</defs>
<polyline clip-path="url(#clip952)" style="stroke:#000000; stroke-linecap:round; stroke-linejoin:round; stroke-width:2; stroke-opacity:0.1; fill:none" points="226.495,1505.26 226.495,62.9921 "/>
<polyline clip-path="url(#clip952)" style="stroke:#000000; stroke-linecap:round; stroke-linejoin:round; stroke-width:2; stroke-opacity:0.1; fill:none" points="703.282,1505.26 703.282,62.9921 "/>
<polyline clip-path="url(#clip952)" style="stroke:#000000; stroke-linecap:round; stroke-linejoin:round; stroke-width:2; stroke-opacity:0.1; fill:none" points="1180.07,1505.26 1180.07,62.9921 "/>
<polyline clip-path="url(#clip952)" style="stroke:#000000; stroke-linecap:round; stroke-linejoin:round; stroke-width:2; stroke-opacity:0.1; fill:none" points="1656.86,1505.26 1656.86,62.9921 "/>
<polyline clip-path="url(#clip952)" style="stroke:#000000; stroke-linecap:round; stroke-linejoin:round; stroke-width:2; stroke-opacity:0.1; fill:none" points="2133.64,1505.26 2133.64,62.9921 "/>
<polyline clip-path="url(#clip950)" style="stroke:#000000; stroke-linecap:round; stroke-linejoin:round; stroke-width:4; stroke-opacity:1; fill:none" points="102.74,1505.26 2352.76,1505.26 "/>
<polyline clip-path="url(#clip950)" style="stroke:#000000; stroke-linecap:round; stroke-linejoin:round; stroke-width:4; stroke-opacity:1; fill:none" points="226.495,1505.26 226.495,1486.36 "/>
<polyline clip-path="url(#clip950)" style="stroke:#000000; stroke-linecap:round; stroke-linejoin:round; stroke-width:4; stroke-opacity:1; fill:none" points="703.282,1505.26 703.282,1486.36 "/>
<polyline clip-path="url(#clip950)" style="stroke:#000000; stroke-linecap:round; stroke-linejoin:round; stroke-width:4; stroke-opacity:1; fill:none" points="1180.07,1505.26 1180.07,1486.36 "/>
<polyline clip-path="url(#clip950)" style="stroke:#000000; stroke-linecap:round; stroke-linejoin:round; stroke-width:4; stroke-opacity:1; fill:none" points="1656.86,1505.26 1656.86,1486.36 "/>
<polyline clip-path="url(#clip950)" style="stroke:#000000; stroke-linecap:round; stroke-linejoin:round; stroke-width:4; stroke-opacity:1; fill:none" points="2133.64,1505.26 2133.64,1486.36 "/>
<path clip-path="url(#clip950)" d="M173.521 1550.83 L203.197 1550.83 L203.197 1554.77 L173.521 1554.77 L173.521 1550.83 Z" fill="#000000" fill-rule="nonzero" fill-opacity="1" /><path clip-path="url(#clip950)" d="M214.099 1563.72 L221.738 1563.72 L221.738 1537.36 L213.428 1539.03 L213.428 1534.77 L221.692 1533.1 L226.368 1533.1 L226.368 1563.72 L234.007 1563.72 L234.007 1567.66 L214.099 1567.66 L214.099 1563.72 Z" fill="#000000" fill-rule="nonzero" fill-opacity="1" /><path clip-path="url(#clip950)" d="M243.451 1561.78 L248.335 1561.78 L248.335 1567.66 L243.451 1567.66 L243.451 1561.78 Z" fill="#000000" fill-rule="nonzero" fill-opacity="1" /><path clip-path="url(#clip950)" d="M258.567 1533.1 L276.923 1533.1 L276.923 1537.04 L262.849 1537.04 L262.849 1545.51 Q263.868 1545.16 264.886 1545 Q265.905 1544.81 266.923 1544.81 Q272.71 1544.81 276.09 1547.98 Q279.469 1551.16 279.469 1556.57 Q279.469 1562.15 275.997 1565.25 Q272.525 1568.33 266.205 1568.33 Q264.03 1568.33 261.761 1567.96 Q259.516 1567.59 257.108 1566.85 L257.108 1562.15 Q259.192 1563.28 261.414 1563.84 Q263.636 1564.4 266.113 1564.4 Q270.117 1564.4 272.455 1562.29 Q274.793 1560.18 274.793 1556.57 Q274.793 1552.96 272.455 1550.85 Q270.117 1548.75 266.113 1548.75 Q264.238 1548.75 262.363 1549.16 Q260.511 1549.58 258.567 1550.46 L258.567 1533.1 Z" fill="#000000" fill-rule="nonzero" fill-opacity="1" /><path clip-path="url(#clip950)" d="M649.81 1550.83 L679.486 1550.83 L679.486 1554.77 L649.81 1554.77 L649.81 1550.83 Z" fill="#000000" fill-rule="nonzero" fill-opacity="1" /><path clip-path="url(#clip950)" d="M690.389 1563.72 L698.028 1563.72 L698.028 1537.36 L689.717 1539.03 L689.717 1534.77 L697.981 1533.1 L702.657 1533.1 L702.657 1563.72 L710.296 1563.72 L710.296 1567.66 L690.389 1567.66 L690.389 1563.72 Z" fill="#000000" fill-rule="nonzero" fill-opacity="1" /><path clip-path="url(#clip950)" d="M719.74 1561.78 L724.625 1561.78 L724.625 1567.66 L719.74 1567.66 L719.74 1561.78 Z" fill="#000000" fill-rule="nonzero" fill-opacity="1" /><path clip-path="url(#clip950)" d="M744.81 1536.18 Q741.199 1536.18 739.37 1539.74 Q737.564 1543.28 737.564 1550.41 Q737.564 1557.52 739.37 1561.09 Q741.199 1564.63 744.81 1564.63 Q748.444 1564.63 750.25 1561.09 Q752.078 1557.52 752.078 1550.41 Q752.078 1543.28 750.25 1539.74 Q748.444 1536.18 744.81 1536.18 M744.81 1532.47 Q750.62 1532.47 753.675 1537.08 Q756.754 1541.66 756.754 1550.41 Q756.754 1559.14 753.675 1563.75 Q750.62 1568.33 744.81 1568.33 Q739 1568.33 735.921 1563.75 Q732.865 1559.14 732.865 1550.41 Q732.865 1541.66 735.921 1537.08 Q739 1532.47 744.81 1532.47 Z" fill="#000000" fill-rule="nonzero" fill-opacity="1" /><path clip-path="url(#clip950)" d="M1127.1 1550.83 L1156.77 1550.83 L1156.77 1554.77 L1127.1 1554.77 L1127.1 1550.83 Z" fill="#000000" fill-rule="nonzero" fill-opacity="1" /><path clip-path="url(#clip950)" d="M1176.86 1536.18 Q1173.25 1536.18 1171.42 1539.74 Q1169.62 1543.28 1169.62 1550.41 Q1169.62 1557.52 1171.42 1561.09 Q1173.25 1564.63 1176.86 1564.63 Q1180.5 1564.63 1182.3 1561.09 Q1184.13 1557.52 1184.13 1550.41 Q1184.13 1543.28 1182.3 1539.74 Q1180.5 1536.18 1176.86 1536.18 M1176.86 1532.47 Q1182.67 1532.47 1185.73 1537.08 Q1188.81 1541.66 1188.81 1550.41 Q1188.81 1559.14 1185.73 1563.75 Q1182.67 1568.33 1176.86 1568.33 Q1171.05 1568.33 1167.97 1563.75 Q1164.92 1559.14 1164.92 1550.41 Q1164.92 1541.66 1167.97 1537.08 Q1171.05 1532.47 1176.86 1532.47 Z" fill="#000000" fill-rule="nonzero" fill-opacity="1" /><path clip-path="url(#clip950)" d="M1197.03 1561.78 L1201.91 1561.78 L1201.91 1567.66 L1197.03 1567.66 L1197.03 1561.78 Z" fill="#000000" fill-rule="nonzero" fill-opacity="1" /><path clip-path="url(#clip950)" d="M1212.14 1533.1 L1230.5 1533.1 L1230.5 1537.04 L1216.42 1537.04 L1216.42 1545.51 Q1217.44 1545.16 1218.46 1545 Q1219.48 1544.81 1220.5 1544.81 Q1226.28 1544.81 1229.66 1547.98 Q1233.04 1551.16 1233.04 1556.57 Q1233.04 1562.15 1229.57 1565.25 Q1226.1 1568.33 1219.78 1568.33 Q1217.6 1568.33 1215.34 1567.96 Q1213.09 1567.59 1210.68 1566.85 L1210.68 1562.15 Q1212.77 1563.28 1214.99 1563.84 Q1217.21 1564.4 1219.69 1564.4 Q1223.69 1564.4 1226.03 1562.29 Q1228.37 1560.18 1228.37 1556.57 Q1228.37 1552.96 1226.03 1550.85 Q1223.69 1548.75 1219.69 1548.75 Q1217.81 1548.75 1215.94 1549.16 Q1214.09 1549.58 1212.14 1550.46 L1212.14 1533.1 Z" fill="#000000" fill-rule="nonzero" fill-opacity="1" /><path clip-path="url(#clip950)" d="M1634.24 1536.18 Q1630.63 1536.18 1628.8 1539.74 Q1627 1543.28 1627 1550.41 Q1627 1557.52 1628.8 1561.09 Q1630.63 1564.63 1634.24 1564.63 Q1637.88 1564.63 1639.68 1561.09 Q1641.51 1557.52 1641.51 1550.41 Q1641.51 1543.28 1639.68 1539.74 Q1637.88 1536.18 1634.24 1536.18 M1634.24 1532.47 Q1640.05 1532.47 1643.11 1537.08 Q1646.19 1541.66 1646.19 1550.41 Q1646.19 1559.14 1643.11 1563.75 Q1640.05 1568.33 1634.24 1568.33 Q1628.43 1568.33 1625.35 1563.75 Q1622.3 1559.14 1622.3 1550.41 Q1622.3 1541.66 1625.35 1537.08 Q1628.43 1532.47 1634.24 1532.47 Z" fill="#000000" fill-rule="nonzero" fill-opacity="1" /><path clip-path="url(#clip950)" d="M1654.4 1561.78 L1659.29 1561.78 L1659.29 1567.66 L1654.4 1567.66 L1654.4 1561.78 Z" fill="#000000" fill-rule="nonzero" fill-opacity="1" /><path clip-path="url(#clip950)" d="M1679.47 1536.18 Q1675.86 1536.18 1674.03 1539.74 Q1672.23 1543.28 1672.23 1550.41 Q1672.23 1557.52 1674.03 1561.09 Q1675.86 1564.63 1679.47 1564.63 Q1683.11 1564.63 1684.91 1561.09 Q1686.74 1557.52 1686.74 1550.41 Q1686.74 1543.28 1684.91 1539.74 Q1683.11 1536.18 1679.47 1536.18 M1679.47 1532.47 Q1685.28 1532.47 1688.34 1537.08 Q1691.42 1541.66 1691.42 1550.41 Q1691.42 1559.14 1688.34 1563.75 Q1685.28 1568.33 1679.47 1568.33 Q1673.66 1568.33 1670.58 1563.75 Q1667.53 1559.14 1667.53 1550.41 Q1667.53 1541.66 1670.58 1537.08 Q1673.66 1532.47 1679.47 1532.47 Z" fill="#000000" fill-rule="nonzero" fill-opacity="1" /><path clip-path="url(#clip950)" d="M2111.53 1536.18 Q2107.91 1536.18 2106.09 1539.74 Q2104.28 1543.28 2104.28 1550.41 Q2104.28 1557.52 2106.09 1561.09 Q2107.91 1564.63 2111.53 1564.63 Q2115.16 1564.63 2116.97 1561.09 Q2118.79 1557.52 2118.79 1550.41 Q2118.79 1543.28 2116.97 1539.74 Q2115.16 1536.18 2111.53 1536.18 M2111.53 1532.47 Q2117.34 1532.47 2120.39 1537.08 Q2123.47 1541.66 2123.47 1550.41 Q2123.47 1559.14 2120.39 1563.75 Q2117.34 1568.33 2111.53 1568.33 Q2105.72 1568.33 2102.64 1563.75 Q2099.58 1559.14 2099.58 1550.41 Q2099.58 1541.66 2102.64 1537.08 Q2105.72 1532.47 2111.53 1532.47 Z" fill="#000000" fill-rule="nonzero" fill-opacity="1" /><path clip-path="url(#clip950)" d="M2131.69 1561.78 L2136.57 1561.78 L2136.57 1567.66 L2131.69 1567.66 L2131.69 1561.78 Z" fill="#000000" fill-rule="nonzero" fill-opacity="1" /><path clip-path="url(#clip950)" d="M2146.8 1533.1 L2165.16 1533.1 L2165.16 1537.04 L2151.09 1537.04 L2151.09 1545.51 Q2152.1 1545.16 2153.12 1545 Q2154.14 1544.81 2155.16 1544.81 Q2160.95 1544.81 2164.33 1547.98 Q2167.71 1551.16 2167.71 1556.57 Q2167.71 1562.15 2164.23 1565.25 Q2160.76 1568.33 2154.44 1568.33 Q2152.27 1568.33 2150 1567.96 Q2147.75 1567.59 2145.34 1566.85 L2145.34 1562.15 Q2147.43 1563.28 2149.65 1563.84 Q2151.87 1564.4 2154.35 1564.4 Q2158.35 1564.4 2160.69 1562.29 Q2163.03 1560.18 2163.03 1556.57 Q2163.03 1552.96 2160.69 1550.85 Q2158.35 1548.75 2154.35 1548.75 Q2152.47 1548.75 2150.6 1549.16 Q2148.75 1549.58 2146.8 1550.46 L2146.8 1533.1 Z" fill="#000000" fill-rule="nonzero" fill-opacity="1" /><path clip-path="url(#clip950)" d="M1244.36 1614.48 L1231.47 1631.82 L1245.03 1650.12 L1238.12 1650.12 L1227.75 1636.12 L1217.37 1650.12 L1210.47 1650.12 L1224.31 1631.47 L1211.64 1614.48 L1218.55 1614.48 L1228 1627.18 L1237.46 1614.48 L1244.36 1614.48 Z" fill="#000000" fill-rule="nonzero" fill-opacity="1" /><polyline clip-path="url(#clip952)" style="stroke:#000000; stroke-linecap:round; stroke-linejoin:round; stroke-width:2; stroke-opacity:0.1; fill:none" points="102.74,1505.26 2352.76,1505.26 "/>
<polyline clip-path="url(#clip952)" style="stroke:#000000; stroke-linecap:round; stroke-linejoin:round; stroke-width:2; stroke-opacity:0.1; fill:none" points="102.74,1180.57 2352.76,1180.57 "/>
<polyline clip-path="url(#clip952)" style="stroke:#000000; stroke-linecap:round; stroke-linejoin:round; stroke-width:2; stroke-opacity:0.1; fill:none" points="102.74,855.882 2352.76,855.882 "/>
<polyline clip-path="url(#clip952)" style="stroke:#000000; stroke-linecap:round; stroke-linejoin:round; stroke-width:2; stroke-opacity:0.1; fill:none" points="102.74,531.193 2352.76,531.193 "/>
<polyline clip-path="url(#clip952)" style="stroke:#000000; stroke-linecap:round; stroke-linejoin:round; stroke-width:2; stroke-opacity:0.1; fill:none" points="102.74,206.505 2352.76,206.505 "/>
<polyline clip-path="url(#clip950)" style="stroke:#000000; stroke-linecap:round; stroke-linejoin:round; stroke-width:4; stroke-opacity:1; fill:none" points="102.74,1505.26 102.74,62.9921 "/>
<polyline clip-path="url(#clip950)" style="stroke:#000000; stroke-linecap:round; stroke-linejoin:round; stroke-width:4; stroke-opacity:1; fill:none" points="102.74,1505.26 121.638,1505.26 "/>
<polyline clip-path="url(#clip950)" style="stroke:#000000; stroke-linecap:round; stroke-linejoin:round; stroke-width:4; stroke-opacity:1; fill:none" points="102.74,1180.57 121.638,1180.57 "/>
<polyline clip-path="url(#clip950)" style="stroke:#000000; stroke-linecap:round; stroke-linejoin:round; stroke-width:4; stroke-opacity:1; fill:none" points="102.74,855.882 121.638,855.882 "/>
<polyline clip-path="url(#clip950)" style="stroke:#000000; stroke-linecap:round; stroke-linejoin:round; stroke-width:4; stroke-opacity:1; fill:none" points="102.74,531.193 121.638,531.193 "/>
<polyline clip-path="url(#clip950)" style="stroke:#000000; stroke-linecap:round; stroke-linejoin:round; stroke-width:4; stroke-opacity:1; fill:none" points="102.74,206.505 121.638,206.505 "/>
<path clip-path="url(#clip950)" d="M9.56454 1491.06 Q5.95345 1491.06 4.12475 1494.62 Q2.31921 1498.16 2.31921 1505.29 Q2.31921 1512.4 4.12475 1515.97 Q5.95345 1519.51 9.56454 1519.51 Q13.1988 1519.51 15.0043 1515.97 Q16.833 1512.4 16.833 1505.29 Q16.833 1498.16 15.0043 1494.62 Q13.1988 1491.06 9.56454 1491.06 M9.56454 1487.35 Q15.3747 1487.35 18.4302 1491.96 Q21.5089 1496.54 21.5089 1505.29 Q21.5089 1514.02 18.4302 1518.63 Q15.3747 1523.21 9.56454 1523.21 Q3.75438 1523.21 0.675697 1518.63 Q-2.37984 1514.02 -2.37984 1505.29 Q-2.37984 1496.54 0.675697 1491.96 Q3.75438 1487.35 9.56454 1487.35 Z" fill="#000000" fill-rule="nonzero" fill-opacity="1" /><path clip-path="url(#clip950)" d="M29.7265 1516.66 L34.6107 1516.66 L34.6107 1522.54 L29.7265 1522.54 L29.7265 1516.66 Z" fill="#000000" fill-rule="nonzero" fill-opacity="1" /><path clip-path="url(#clip950)" d="M54.7958 1491.06 Q51.1847 1491.06 49.356 1494.62 Q47.5504 1498.16 47.5504 1505.29 Q47.5504 1512.4 49.356 1515.97 Q51.1847 1519.51 54.7958 1519.51 Q58.43 1519.51 60.2356 1515.97 Q62.0643 1512.4 62.0643 1505.29 Q62.0643 1498.16 60.2356 1494.62 Q58.43 1491.06 54.7958 1491.06 M54.7958 1487.35 Q60.6059 1487.35 63.6615 1491.96 Q66.7402 1496.54 66.7402 1505.29 Q66.7402 1514.02 63.6615 1518.63 Q60.6059 1523.21 54.7958 1523.21 Q48.9856 1523.21 45.9069 1518.63 Q42.8514 1514.02 42.8514 1505.29 Q42.8514 1496.54 45.9069 1491.96 Q48.9856 1487.35 54.7958 1487.35 Z" fill="#000000" fill-rule="nonzero" fill-opacity="1" /><path clip-path="url(#clip950)" d="M10.5599 1166.37 Q6.94881 1166.37 5.12012 1169.93 Q3.31457 1173.48 3.31457 1180.61 Q3.31457 1187.71 5.12012 1191.28 Q6.94881 1194.82 10.5599 1194.82 Q14.1941 1194.82 15.9997 1191.28 Q17.8284 1187.71 17.8284 1180.61 Q17.8284 1173.48 15.9997 1169.93 Q14.1941 1166.37 10.5599 1166.37 M10.5599 1162.67 Q16.3701 1162.67 19.4256 1167.27 Q22.5043 1171.86 22.5043 1180.61 Q22.5043 1189.33 19.4256 1193.94 Q16.3701 1198.52 10.5599 1198.52 Q4.74975 1198.52 1.67106 1193.94 Q-1.38448 1189.33 -1.38448 1180.61 Q-1.38448 1171.86 1.67106 1167.27 Q4.74975 1162.67 10.5599 1162.67 Z" fill="#000000" fill-rule="nonzero" fill-opacity="1" /><path clip-path="url(#clip950)" d="M30.7218 1191.97 L35.6061 1191.97 L35.6061 1197.85 L30.7218 1197.85 L30.7218 1191.97 Z" fill="#000000" fill-rule="nonzero" fill-opacity="1" /><path clip-path="url(#clip950)" d="M45.8375 1163.29 L64.1939 1163.29 L64.1939 1167.23 L50.1199 1167.23 L50.1199 1175.7 Q51.1384 1175.35 52.1569 1175.19 Q53.1754 1175 54.1939 1175 Q59.9809 1175 63.3605 1178.18 Q66.7402 1181.35 66.7402 1186.76 Q66.7402 1192.34 63.268 1195.44 Q59.7958 1198.52 53.4763 1198.52 Q51.3004 1198.52 49.0319 1198.15 Q46.7866 1197.78 44.3792 1197.04 L44.3792 1192.34 Q46.4625 1193.48 48.6847 1194.03 Q50.9069 1194.59 53.3837 1194.59 Q57.3884 1194.59 59.7263 1192.48 Q62.0643 1190.37 62.0643 1186.76 Q62.0643 1183.15 59.7263 1181.05 Q57.3884 1178.94 53.3837 1178.94 Q51.5088 1178.94 49.6338 1179.36 Q47.7819 1179.77 45.8375 1180.65 L45.8375 1163.29 Z" fill="#000000" fill-rule="nonzero" fill-opacity="1" /><path clip-path="url(#clip950)" d="M0.374772 869.227 L8.01362 869.227 L8.01362 842.861 L-0.29652 844.528 L-0.29652 840.269 L7.96732 838.602 L12.6432 838.602 L12.6432 869.227 L20.2821 869.227 L20.2821 873.162 L0.374772 873.162 L0.374772 869.227 Z" fill="#000000" fill-rule="nonzero" fill-opacity="1" /><path clip-path="url(#clip950)" d="M29.7265 867.283 L34.6107 867.283 L34.6107 873.162 L29.7265 873.162 L29.7265 867.283 Z" fill="#000000" fill-rule="nonzero" fill-opacity="1" /><path clip-path="url(#clip950)" d="M54.7958 841.681 Q51.1847 841.681 49.356 845.246 Q47.5504 848.787 47.5504 855.917 Q47.5504 863.023 49.356 866.588 Q51.1847 870.13 54.7958 870.13 Q58.43 870.13 60.2356 866.588 Q62.0643 863.023 62.0643 855.917 Q62.0643 848.787 60.2356 845.246 Q58.43 841.681 54.7958 841.681 M54.7958 837.977 Q60.6059 837.977 63.6615 842.584 Q66.7402 847.167 66.7402 855.917 Q66.7402 864.644 63.6615 869.25 Q60.6059 873.834 54.7958 873.834 Q48.9856 873.834 45.9069 869.25 Q42.8514 864.644 42.8514 855.917 Q42.8514 847.167 45.9069 842.584 Q48.9856 837.977 54.7958 837.977 Z" fill="#000000" fill-rule="nonzero" fill-opacity="1" /><path clip-path="url(#clip950)" d="M1.37014 544.538 L9.00899 544.538 L9.00899 518.173 L0.698845 519.839 L0.698845 515.58 L8.96269 513.913 L13.6386 513.913 L13.6386 544.538 L21.2774 544.538 L21.2774 548.473 L1.37014 548.473 L1.37014 544.538 Z" fill="#000000" fill-rule="nonzero" fill-opacity="1" /><path clip-path="url(#clip950)" d="M30.7218 542.594 L35.6061 542.594 L35.6061 548.473 L30.7218 548.473 L30.7218 542.594 Z" fill="#000000" fill-rule="nonzero" fill-opacity="1" /><path clip-path="url(#clip950)" d="M45.8375 513.913 L64.1939 513.913 L64.1939 517.849 L50.1199 517.849 L50.1199 526.321 Q51.1384 525.974 52.1569 525.811 Q53.1754 525.626 54.1939 525.626 Q59.9809 525.626 63.3605 528.798 Q66.7402 531.969 66.7402 537.385 Q66.7402 542.964 63.268 546.066 Q59.7958 549.145 53.4763 549.145 Q51.3004 549.145 49.0319 548.774 Q46.7866 548.404 44.3792 547.663 L44.3792 542.964 Q46.4625 544.098 48.6847 544.654 Q50.9069 545.21 53.3837 545.21 Q57.3884 545.21 59.7263 543.103 Q62.0643 540.997 62.0643 537.385 Q62.0643 533.774 59.7263 531.668 Q57.3884 529.561 53.3837 529.561 Q51.5088 529.561 49.6338 529.978 Q47.7819 530.395 45.8375 531.274 L45.8375 513.913 Z" fill="#000000" fill-rule="nonzero" fill-opacity="1" /><path clip-path="url(#clip950)" d="M3.59235 219.849 L19.9117 219.849 L19.9117 223.785 L-2.03262 223.785 L-2.03262 219.849 Q0.629401 217.095 5.21271 212.465 Q9.81917 207.812 10.9997 206.47 Q13.2451 203.947 14.1247 202.211 Q15.0275 200.451 15.0275 198.762 Q15.0275 196.007 13.083 194.271 Q11.1618 192.535 8.05992 192.535 Q5.86085 192.535 3.40716 193.299 Q0.976621 194.063 -1.80114 195.613 L-1.80114 190.891 Q1.02292 189.757 3.47661 189.178 Q5.9303 188.6 7.96732 188.6 Q13.3377 188.6 16.5321 191.285 Q19.7265 193.97 19.7265 198.461 Q19.7265 200.59 18.9163 202.512 Q18.1293 204.41 16.0228 207.002 Q15.4441 207.674 12.3423 210.891 Q9.24047 214.086 3.59235 219.849 Z" fill="#000000" fill-rule="nonzero" fill-opacity="1" /><path clip-path="url(#clip950)" d="M29.7265 217.905 L34.6107 217.905 L34.6107 223.785 L29.7265 223.785 L29.7265 217.905 Z" fill="#000000" fill-rule="nonzero" fill-opacity="1" /><path clip-path="url(#clip950)" d="M54.7958 192.303 Q51.1847 192.303 49.356 195.868 Q47.5504 199.41 47.5504 206.539 Q47.5504 213.646 49.356 217.211 Q51.1847 220.752 54.7958 220.752 Q58.43 220.752 60.2356 217.211 Q62.0643 213.646 62.0643 206.539 Q62.0643 199.41 60.2356 195.868 Q58.43 192.303 54.7958 192.303 M54.7958 188.6 Q60.6059 188.6 63.6615 193.206 Q66.7402 197.789 66.7402 206.539 Q66.7402 215.266 63.6615 219.873 Q60.6059 224.456 54.7958 224.456 Q48.9856 224.456 45.9069 219.873 Q42.8514 215.266 42.8514 206.539 Q42.8514 197.789 45.9069 193.206 Q48.9856 188.6 54.7958 188.6 Z" fill="#000000" fill-rule="nonzero" fill-opacity="1" /><path clip-path="url(#clip950)" d="M-100.156 948.329 L-100.156 921.021 L-94.745 921.021 L-94.745 941.9 L-80.7404 941.9 L-80.7404 923.058 L-75.3296 923.058 L-75.3296 941.9 L-52.6358 941.9 L-52.6358 948.329 L-100.156 948.329 Z" fill="#000000" fill-rule="nonzero" fill-opacity="1" /><path clip-path="url(#clip950)" d="M-82.8093 895.176 Q-83.3822 896.162 -83.6368 897.34 Q-83.9233 898.486 -83.9233 899.886 Q-83.9233 904.852 -80.6768 907.525 Q-77.4621 910.167 -71.4147 910.167 L-52.6358 910.167 L-52.6358 916.055 L-88.2838 916.055 L-88.2838 910.167 L-82.7456 910.167 Q-85.9921 908.321 -87.5517 905.361 Q-89.1432 902.401 -89.1432 898.168 Q-89.1432 897.563 -89.0477 896.831 Q-88.984 896.099 -88.8249 895.208 L-82.8093 895.176 Z" fill="#000000" fill-rule="nonzero" fill-opacity="1" /><path clip-path="url(#clip950)" d="M-71.9239 859.973 L-69.0594 859.973 L-69.0594 886.9 Q-63.0119 886.518 -59.8291 883.272 Q-56.6781 879.994 -56.6781 874.169 Q-56.6781 870.795 -57.5056 867.644 Q-58.3331 864.461 -59.9882 861.342 L-54.4501 861.342 Q-53.1133 864.493 -52.413 867.803 Q-51.7128 871.113 -51.7128 874.519 Q-51.7128 883.049 -56.6781 888.046 Q-61.6433 893.011 -70.1097 893.011 Q-78.8626 893.011 -83.9869 888.301 Q-89.1432 883.558 -89.1432 875.538 Q-89.1432 868.344 -84.4962 864.175 Q-79.8811 859.973 -71.9239 859.973 M-73.6427 865.83 Q-78.4488 865.893 -81.3134 868.535 Q-84.1779 871.145 -84.1779 875.474 Q-84.1779 880.375 -81.4088 883.336 Q-78.6398 886.264 -73.6108 886.709 L-73.6427 865.83 Z" fill="#000000" fill-rule="nonzero" fill-opacity="1" /><path clip-path="url(#clip950)" d="M-70.428 846.86 Q-63.9668 846.86 -60.2747 844.218 Q-56.6144 841.545 -56.6144 836.898 Q-56.6144 832.251 -60.2747 829.577 Q-63.9668 826.904 -70.428 826.904 Q-76.8892 826.904 -80.5495 829.577 Q-84.2416 832.251 -84.2416 836.898 Q-84.2416 841.545 -80.5495 844.218 Q-76.8892 846.86 -70.428 846.86 M-57.983 826.904 Q-54.8002 828.75 -53.2406 831.582 Q-51.7128 834.383 -51.7128 838.33 Q-51.7128 844.791 -56.869 848.865 Q-62.0253 852.907 -70.428 852.907 Q-78.8307 852.907 -83.9869 848.865 Q-89.1432 844.791 -89.1432 838.33 Q-89.1432 834.383 -87.5836 831.582 Q-86.0558 828.75 -82.8729 826.904 L-88.2838 826.904 L-88.2838 821.047 L-39.0769 821.047 L-39.0769 826.904 L-57.983 826.904 Z" fill="#000000" fill-rule="nonzero" fill-opacity="1" /><path clip-path="url(#clip950)" d="M-66.7041 809.589 L-88.2838 809.589 L-88.2838 803.732 L-66.9269 803.732 Q-61.8661 803.732 -59.3198 801.759 Q-56.8054 799.786 -56.8054 795.839 Q-56.8054 791.096 -59.8291 788.359 Q-62.8528 785.59 -68.0727 785.59 L-88.2838 785.59 L-88.2838 779.734 L-52.6358 779.734 L-52.6358 785.59 L-58.1104 785.59 Q-54.8638 787.723 -53.2724 790.555 Q-51.7128 793.356 -51.7128 797.08 Q-51.7128 803.223 -55.5322 806.406 Q-59.3517 809.589 -66.7041 809.589 M-89.1432 794.852 L-89.1432 794.852 Z" fill="#000000" fill-rule="nonzero" fill-opacity="1" /><path clip-path="url(#clip950)" d="M-71.9239 737.179 L-69.0594 737.179 L-69.0594 764.106 Q-63.0119 763.724 -59.8291 760.477 Q-56.6781 757.199 -56.6781 751.374 Q-56.6781 748.001 -57.5056 744.85 Q-58.3331 741.667 -59.9882 738.548 L-54.4501 738.548 Q-53.1133 741.699 -52.413 745.009 Q-51.7128 748.319 -51.7128 751.725 Q-51.7128 760.255 -56.6781 765.252 Q-61.6433 770.217 -70.1097 770.217 Q-78.8626 770.217 -83.9869 765.506 Q-89.1432 760.764 -89.1432 752.743 Q-89.1432 745.55 -84.4962 741.38 Q-79.8811 737.179 -71.9239 737.179 M-73.6427 743.035 Q-78.4488 743.099 -81.3134 745.741 Q-84.1779 748.351 -84.1779 752.679 Q-84.1779 757.581 -81.4088 760.541 Q-78.6398 763.469 -73.6108 763.915 L-73.6427 743.035 Z" fill="#000000" fill-rule="nonzero" fill-opacity="1" /><path clip-path="url(#clip950)" d="M-74.1519 697.934 L-52.6358 697.934 L-52.6358 703.791 L-73.961 703.791 Q-79.0217 703.791 -81.5362 705.764 Q-84.0506 707.738 -84.0506 711.684 Q-84.0506 716.427 -81.0269 719.164 Q-78.0032 721.901 -72.7833 721.901 L-52.6358 721.901 L-52.6358 727.789 L-88.2838 727.789 L-88.2838 721.901 L-82.7456 721.901 Q-85.9603 719.801 -87.5517 716.968 Q-89.1432 714.103 -89.1432 710.379 Q-89.1432 704.236 -85.3237 701.085 Q-81.5362 697.934 -74.1519 697.934 Z" fill="#000000" fill-rule="nonzero" fill-opacity="1" /><path clip-path="url(#clip950)" d="M-86.9152 660.599 L-81.4407 660.599 Q-82.8093 663.082 -83.4777 665.597 Q-84.1779 668.079 -84.1779 670.625 Q-84.1779 676.323 -80.5495 679.474 Q-76.9528 682.625 -70.428 682.625 Q-63.9031 682.625 -60.2747 679.474 Q-56.6781 676.323 -56.6781 670.625 Q-56.6781 668.079 -57.3465 665.597 Q-58.0467 663.082 -59.4153 660.599 L-54.0045 660.599 Q-52.8586 663.05 -52.2857 665.692 Q-51.7128 668.302 -51.7128 671.262 Q-51.7128 679.315 -56.7736 684.057 Q-61.8343 688.8 -70.428 688.8 Q-79.149 688.8 -84.1461 684.025 Q-89.1432 679.219 -89.1432 670.88 Q-89.1432 668.175 -88.5703 665.597 Q-88.0292 663.018 -86.9152 660.599 Z" fill="#000000" fill-rule="nonzero" fill-opacity="1" /><path clip-path="url(#clip950)" d="M-49.3257 635.582 Q-42.96 638.065 -41.0184 640.42 Q-39.0769 642.775 -39.0769 646.722 L-39.0769 651.401 L-43.9785 651.401 L-43.9785 647.964 Q-43.9785 645.545 -45.1243 644.208 Q-46.2701 642.871 -50.5352 641.248 L-53.2088 640.197 L-88.2838 654.616 L-88.2838 648.409 L-60.402 637.269 L-88.2838 626.129 L-88.2838 619.923 L-49.3257 635.582 Z" fill="#000000" fill-rule="nonzero" fill-opacity="1" /><path clip-path="url(#clip950)" d="M1124.23 12.096 L1135.25 12.096 L1162.06 62.6918 L1162.06 12.096 L1170 12.096 L1170 72.576 L1158.98 72.576 L1132.17 21.9802 L1132.17 72.576 L1124.23 72.576 L1124.23 12.096 Z" fill="#000000" fill-rule="nonzero" fill-opacity="1" /><path clip-path="url(#clip950)" d="M1186.29 12.096 L1224.53 12.096 L1224.53 18.9825 L1194.47 18.9825 L1194.47 36.8875 L1223.27 36.8875 L1223.27 43.7741 L1194.47 43.7741 L1194.47 65.6895 L1225.26 65.6895 L1225.26 72.576 L1186.29 72.576 L1186.29 12.096 Z" fill="#000000" fill-rule="nonzero" fill-opacity="1" /><path clip-path="url(#clip950)" d="M1274.96 14.0809 L1274.96 22.0612 Q1270.3 19.8332 1266.17 18.7395 Q1262.04 17.6457 1258.19 17.6457 Q1251.51 17.6457 1247.86 20.2383 Q1244.26 22.8309 1244.26 27.611 Q1244.26 31.6214 1246.65 33.6873 Q1249.08 35.7128 1255.8 36.9686 L1260.74 37.9813 Q1269.9 39.7232 1274.23 44.1387 Q1278.61 48.5136 1278.61 55.8863 Q1278.61 64.6767 1272.69 69.2137 Q1266.82 73.7508 1255.44 73.7508 Q1251.14 73.7508 1246.28 72.7785 Q1241.46 71.8063 1236.28 69.9024 L1236.28 61.4765 Q1241.26 64.2716 1246.04 65.6895 Q1250.82 67.1073 1255.44 67.1073 Q1262.44 67.1073 1266.25 64.3527 Q1270.06 61.598 1270.06 56.4939 Q1270.06 52.0379 1267.31 49.5264 Q1264.59 47.0148 1258.35 45.759 L1253.37 44.7868 Q1244.21 42.9639 1240.12 39.075 Q1236.03 35.1862 1236.03 28.2591 Q1236.03 20.2383 1241.66 15.6203 Q1247.33 11.0023 1257.26 11.0023 Q1261.51 11.0023 1265.93 11.7719 Q1270.34 12.5416 1274.96 14.0809 Z" fill="#000000" fill-rule="nonzero" fill-opacity="1" /><path clip-path="url(#clip950)" d="M1327.62 14.0809 L1327.62 22.0612 Q1322.96 19.8332 1318.83 18.7395 Q1314.7 17.6457 1310.85 17.6457 Q1304.17 17.6457 1300.52 20.2383 Q1296.92 22.8309 1296.92 27.611 Q1296.92 31.6214 1299.31 33.6873 Q1301.74 35.7128 1308.46 36.9686 L1313.4 37.9813 Q1322.56 39.7232 1326.89 44.1387 Q1331.27 48.5136 1331.27 55.8863 Q1331.27 64.6767 1325.35 69.2137 Q1319.48 73.7508 1308.1 73.7508 Q1303.8 73.7508 1298.94 72.7785 Q1294.12 71.8063 1288.94 69.9024 L1288.94 61.4765 Q1293.92 64.2716 1298.7 65.6895 Q1303.48 67.1073 1308.1 67.1073 Q1315.11 67.1073 1318.91 64.3527 Q1322.72 61.598 1322.72 56.4939 Q1322.72 52.0379 1319.97 49.5264 Q1317.25 47.0148 1311.01 45.759 L1306.03 44.7868 Q1296.88 42.9639 1292.79 39.075 Q1288.69 35.1862 1288.69 28.2591 Q1288.69 20.2383 1294.32 15.6203 Q1300 11.0023 1309.92 11.0023 Q1314.17 11.0023 1318.59 11.7719 Q1323.01 12.5416 1327.62 14.0809 Z" fill="#000000" fill-rule="nonzero" fill-opacity="1" /><path clip-path="url(#clip952)" d="M226.495 1496.82 L226.495 1505.26 L321.852 1505.26 L321.852 1496.82 L226.495 1496.82 L226.495 1496.82  Z" fill="#009af9" fill-rule="evenodd" fill-opacity="1"/>
<polyline clip-path="url(#clip952)" style="stroke:#000000; stroke-linecap:round; stroke-linejoin:round; stroke-width:4; stroke-opacity:1; fill:none" points="226.495,1496.82 226.495,1505.26 321.852,1505.26 321.852,1496.82 226.495,1496.82 "/>
<path clip-path="url(#clip952)" d="M321.852 1440.32 L321.852 1505.26 L417.21 1505.26 L417.21 1440.32 L321.852 1440.32 L321.852 1440.32  Z" fill="#009af9" fill-rule="evenodd" fill-opacity="1"/>
<polyline clip-path="url(#clip952)" style="stroke:#000000; stroke-linecap:round; stroke-linejoin:round; stroke-width:4; stroke-opacity:1; fill:none" points="321.852,1440.32 321.852,1505.26 417.21,1505.26 417.21,1440.32 321.852,1440.32 "/>
<path clip-path="url(#clip952)" d="M417.21 1176.67 L417.21 1505.26 L512.567 1505.26 L512.567 1176.67 L417.21 1176.67 L417.21 1176.67  Z" fill="#009af9" fill-rule="evenodd" fill-opacity="1"/>
<polyline clip-path="url(#clip952)" style="stroke:#000000; stroke-linecap:round; stroke-linejoin:round; stroke-width:4; stroke-opacity:1; fill:none" points="417.21,1176.67 417.21,1505.26 512.567,1505.26 512.567,1176.67 417.21,1176.67 "/>
<path clip-path="url(#clip952)" d="M512.567 592.884 L512.567 1505.26 L607.925 1505.26 L607.925 592.884 L512.567 592.884 L512.567 592.884  Z" fill="#009af9" fill-rule="evenodd" fill-opacity="1"/>
<polyline clip-path="url(#clip952)" style="stroke:#000000; stroke-linecap:round; stroke-linejoin:round; stroke-width:4; stroke-opacity:1; fill:none" points="512.567,592.884 512.567,1505.26 607.925,1505.26 607.925,592.884 512.567,592.884 "/>
<path clip-path="url(#clip952)" d="M607.925 111.046 L607.925 1505.26 L703.282 1505.26 L703.282 111.046 L607.925 111.046 L607.925 111.046  Z" fill="#009af9" fill-rule="evenodd" fill-opacity="1"/>
<polyline clip-path="url(#clip952)" style="stroke:#000000; stroke-linecap:round; stroke-linejoin:round; stroke-width:4; stroke-opacity:1; fill:none" points="607.925,111.046 607.925,1505.26 703.282,1505.26 703.282,111.046 607.925,111.046 "/>
<path clip-path="url(#clip952)" d="M703.282 62.9921 L703.282 1505.26 L798.64 1505.26 L798.64 62.9921 L703.282 62.9921 L703.282 62.9921  Z" fill="#009af9" fill-rule="evenodd" fill-opacity="1"/>
<polyline clip-path="url(#clip952)" style="stroke:#000000; stroke-linecap:round; stroke-linejoin:round; stroke-width:4; stroke-opacity:1; fill:none" points="703.282,62.9921 703.282,1505.26 798.64,1505.26 798.64,62.9921 703.282,62.9921 "/>
<path clip-path="url(#clip952)" d="M798.64 472.749 L798.64 1505.26 L893.997 1505.26 L893.997 472.749 L798.64 472.749 L798.64 472.749  Z" fill="#009af9" fill-rule="evenodd" fill-opacity="1"/>
<polyline clip-path="url(#clip952)" style="stroke:#000000; stroke-linecap:round; stroke-linejoin:round; stroke-width:4; stroke-opacity:1; fill:none" points="798.64,472.749 798.64,1505.26 893.997,1505.26 893.997,472.749 798.64,472.749 "/>
<path clip-path="url(#clip952)" d="M893.997 894.845 L893.997 1505.26 L989.354 1505.26 L989.354 894.845 L893.997 894.845 L893.997 894.845  Z" fill="#009af9" fill-rule="evenodd" fill-opacity="1"/>
<polyline clip-path="url(#clip952)" style="stroke:#000000; stroke-linecap:round; stroke-linejoin:round; stroke-width:4; stroke-opacity:1; fill:none" points="893.997,894.845 893.997,1505.26 989.354,1505.26 989.354,894.845 893.997,894.845 "/>
<path clip-path="url(#clip952)" d="M989.354 1158.49 L989.354 1505.26 L1084.71 1505.26 L1084.71 1158.49 L989.354 1158.49 L989.354 1158.49  Z" fill="#009af9" fill-rule="evenodd" fill-opacity="1"/>
<polyline clip-path="url(#clip952)" style="stroke:#000000; stroke-linecap:round; stroke-linejoin:round; stroke-width:4; stroke-opacity:1; fill:none" points="989.354,1158.49 989.354,1505.26 1084.71,1505.26 1084.71,1158.49 989.354,1158.49 "/>
<path clip-path="url(#clip952)" d="M1084.71 1334.47 L1084.71 1505.26 L1180.07 1505.26 L1180.07 1334.47 L1084.71 1334.47 L1084.71 1334.47  Z" fill="#009af9" fill-rule="evenodd" fill-opacity="1"/>
<polyline clip-path="url(#clip952)" style="stroke:#000000; stroke-linecap:round; stroke-linejoin:round; stroke-width:4; stroke-opacity:1; fill:none" points="1084.71,1334.47 1084.71,1505.26 1180.07,1505.26 1180.07,1334.47 1084.71,1334.47 "/>
<path clip-path="url(#clip952)" d="M1180.07 1423.44 L1180.07 1505.26 L1275.43 1505.26 L1275.43 1423.44 L1180.07 1423.44 L1180.07 1423.44  Z" fill="#009af9" fill-rule="evenodd" fill-opacity="1"/>
<polyline clip-path="url(#clip952)" style="stroke:#000000; stroke-linecap:round; stroke-linejoin:round; stroke-width:4; stroke-opacity:1; fill:none" points="1180.07,1423.44 1180.07,1505.26 1275.43,1505.26 1275.43,1423.44 1180.07,1423.44 "/>
<path clip-path="url(#clip952)" d="M1275.43 1471.49 L1275.43 1505.26 L1370.78 1505.26 L1370.78 1471.49 L1275.43 1471.49 L1275.43 1471.49  Z" fill="#009af9" fill-rule="evenodd" fill-opacity="1"/>
<polyline clip-path="url(#clip952)" style="stroke:#000000; stroke-linecap:round; stroke-linejoin:round; stroke-width:4; stroke-opacity:1; fill:none" points="1275.43,1471.49 1275.43,1505.26 1370.78,1505.26 1370.78,1471.49 1275.43,1471.49 "/>
<path clip-path="url(#clip952)" d="M1370.78 1485.78 L1370.78 1505.26 L1466.14 1505.26 L1466.14 1485.78 L1370.78 1485.78 L1370.78 1485.78  Z" fill="#009af9" fill-rule="evenodd" fill-opacity="1"/>
<polyline clip-path="url(#clip952)" style="stroke:#000000; stroke-linecap:round; stroke-linejoin:round; stroke-width:4; stroke-opacity:1; fill:none" points="1370.78,1485.78 1370.78,1505.26 1466.14,1505.26 1466.14,1485.78 1370.78,1485.78 "/>
<path clip-path="url(#clip952)" d="M1466.14 1485.78 L1466.14 1505.26 L1561.5 1505.26 L1561.5 1485.78 L1466.14 1485.78 L1466.14 1485.78  Z" fill="#009af9" fill-rule="evenodd" fill-opacity="1"/>
<polyline clip-path="url(#clip952)" style="stroke:#000000; stroke-linecap:round; stroke-linejoin:round; stroke-width:4; stroke-opacity:1; fill:none" points="1466.14,1485.78 1466.14,1505.26 1561.5,1505.26 1561.5,1485.78 1466.14,1485.78 "/>
<path clip-path="url(#clip952)" d="M1561.5 1494.22 L1561.5 1505.26 L1656.86 1505.26 L1656.86 1494.22 L1561.5 1494.22 L1561.5 1494.22  Z" fill="#009af9" fill-rule="evenodd" fill-opacity="1"/>
<polyline clip-path="url(#clip952)" style="stroke:#000000; stroke-linecap:round; stroke-linejoin:round; stroke-width:4; stroke-opacity:1; fill:none" points="1561.5,1494.22 1561.5,1505.26 1656.86,1505.26 1656.86,1494.22 1561.5,1494.22 "/>
<path clip-path="url(#clip952)" d="M1656.86 1500.06 L1656.86 1505.26 L1752.21 1505.26 L1752.21 1500.06 L1656.86 1500.06 L1656.86 1500.06  Z" fill="#009af9" fill-rule="evenodd" fill-opacity="1"/>
<polyline clip-path="url(#clip952)" style="stroke:#000000; stroke-linecap:round; stroke-linejoin:round; stroke-width:4; stroke-opacity:1; fill:none" points="1656.86,1500.06 1656.86,1505.26 1752.21,1505.26 1752.21,1500.06 1656.86,1500.06 "/>
<path clip-path="url(#clip952)" d="M1752.21 1502.66 L1752.21 1505.26 L1847.57 1505.26 L1847.57 1502.66 L1752.21 1502.66 L1752.21 1502.66  Z" fill="#009af9" fill-rule="evenodd" fill-opacity="1"/>
<polyline clip-path="url(#clip952)" style="stroke:#000000; stroke-linecap:round; stroke-linejoin:round; stroke-width:4; stroke-opacity:1; fill:none" points="1752.21,1502.66 1752.21,1505.26 1847.57,1505.26 1847.57,1502.66 1752.21,1502.66 "/>
<path clip-path="url(#clip952)" d="M1847.57 1500.06 L1847.57 1505.26 L1942.93 1505.26 L1942.93 1500.06 L1847.57 1500.06 L1847.57 1500.06  Z" fill="#009af9" fill-rule="evenodd" fill-opacity="1"/>
<polyline clip-path="url(#clip952)" style="stroke:#000000; stroke-linecap:round; stroke-linejoin:round; stroke-width:4; stroke-opacity:1; fill:none" points="1847.57,1500.06 1847.57,1505.26 1942.93,1505.26 1942.93,1500.06 1847.57,1500.06 "/>
<path clip-path="url(#clip952)" d="M1942.93 1503.31 L1942.93 1505.26 L2038.29 1505.26 L2038.29 1503.31 L1942.93 1503.31 L1942.93 1503.31  Z" fill="#009af9" fill-rule="evenodd" fill-opacity="1"/>
<polyline clip-path="url(#clip952)" style="stroke:#000000; stroke-linecap:round; stroke-linejoin:round; stroke-width:4; stroke-opacity:1; fill:none" points="1942.93,1503.31 1942.93,1505.26 2038.29,1505.26 2038.29,1503.31 1942.93,1503.31 "/>
<path clip-path="url(#clip952)" d="M2038.29 1503.96 L2038.29 1505.26 L2133.64 1505.26 L2133.64 1503.96 L2038.29 1503.96 L2038.29 1503.96  Z" fill="#009af9" fill-rule="evenodd" fill-opacity="1"/>
<polyline clip-path="url(#clip952)" style="stroke:#000000; stroke-linecap:round; stroke-linejoin:round; stroke-width:4; stroke-opacity:1; fill:none" points="2038.29,1503.96 2038.29,1505.26 2133.64,1505.26 2133.64,1503.96 2038.29,1503.96 "/>
<path clip-path="url(#clip952)" d="M2133.64 1504.61 L2133.64 1505.26 L2229 1505.26 L2229 1504.61 L2133.64 1504.61 L2133.64 1504.61  Z" fill="#009af9" fill-rule="evenodd" fill-opacity="1"/>
<polyline clip-path="url(#clip952)" style="stroke:#000000; stroke-linecap:round; stroke-linejoin:round; stroke-width:4; stroke-opacity:1; fill:none" points="2133.64,1504.61 2133.64,1505.26 2229,1505.26 2229,1504.61 2133.64,1504.61 "/>
<circle clip-path="url(#clip952)" style="fill:#009af9; stroke:none; fill-opacity:0" cx="274.174" cy="1496.82" r="2"/>
<circle clip-path="url(#clip952)" style="fill:#009af9; stroke:none; fill-opacity:0" cx="369.531" cy="1440.32" r="2"/>
<circle clip-path="url(#clip952)" style="fill:#009af9; stroke:none; fill-opacity:0" cx="464.889" cy="1176.67" r="2"/>
<circle clip-path="url(#clip952)" style="fill:#009af9; stroke:none; fill-opacity:0" cx="560.246" cy="592.884" r="2"/>
<circle clip-path="url(#clip952)" style="fill:#009af9; stroke:none; fill-opacity:0" cx="655.603" cy="111.046" r="2"/>
<circle clip-path="url(#clip952)" style="fill:#009af9; stroke:none; fill-opacity:0" cx="750.961" cy="62.9921" r="2"/>
<circle clip-path="url(#clip952)" style="fill:#009af9; stroke:none; fill-opacity:0" cx="846.318" cy="472.749" r="2"/>
<circle clip-path="url(#clip952)" style="fill:#009af9; stroke:none; fill-opacity:0" cx="941.676" cy="894.845" r="2"/>
<circle clip-path="url(#clip952)" style="fill:#009af9; stroke:none; fill-opacity:0" cx="1037.03" cy="1158.49" r="2"/>
<circle clip-path="url(#clip952)" style="fill:#009af9; stroke:none; fill-opacity:0" cx="1132.39" cy="1334.47" r="2"/>
<circle clip-path="url(#clip952)" style="fill:#009af9; stroke:none; fill-opacity:0" cx="1227.75" cy="1423.44" r="2"/>
<circle clip-path="url(#clip952)" style="fill:#009af9; stroke:none; fill-opacity:0" cx="1323.11" cy="1471.49" r="2"/>
<circle clip-path="url(#clip952)" style="fill:#009af9; stroke:none; fill-opacity:0" cx="1418.46" cy="1485.78" r="2"/>
<circle clip-path="url(#clip952)" style="fill:#009af9; stroke:none; fill-opacity:0" cx="1513.82" cy="1485.78" r="2"/>
<circle clip-path="url(#clip952)" style="fill:#009af9; stroke:none; fill-opacity:0" cx="1609.18" cy="1494.22" r="2"/>
<circle clip-path="url(#clip952)" style="fill:#009af9; stroke:none; fill-opacity:0" cx="1704.54" cy="1500.06" r="2"/>
<circle clip-path="url(#clip952)" style="fill:#009af9; stroke:none; fill-opacity:0" cx="1799.89" cy="1502.66" r="2"/>
<circle clip-path="url(#clip952)" style="fill:#009af9; stroke:none; fill-opacity:0" cx="1895.25" cy="1500.06" r="2"/>
<circle clip-path="url(#clip952)" style="fill:#009af9; stroke:none; fill-opacity:0" cx="1990.61" cy="1503.31" r="2"/>
<circle clip-path="url(#clip952)" style="fill:#009af9; stroke:none; fill-opacity:0" cx="2085.96" cy="1503.96" r="2"/>
<circle clip-path="url(#clip952)" style="fill:#009af9; stroke:none; fill-opacity:0" cx="2181.32" cy="1504.61" r="2"/>
<path clip-path="url(#clip950)" d="M1855.74 214.748 L2277.76 214.748 L2277.76 111.068 L1855.74 111.068  Z" fill="#ffffff" fill-rule="evenodd" fill-opacity="1"/>
<polyline clip-path="url(#clip950)" style="stroke:#000000; stroke-linecap:round; stroke-linejoin:round; stroke-width:4; stroke-opacity:1; fill:none" points="1855.74,214.748 2277.76,214.748 2277.76,111.068 1855.74,111.068 1855.74,214.748 "/>
<path clip-path="url(#clip950)" d="M1880.74 183.644 L2030.74 183.644 L2030.74 142.172 L1880.74 142.172 L1880.74 183.644  Z" fill="#009af9" fill-rule="evenodd" fill-opacity="1"/>
<polyline clip-path="url(#clip950)" style="stroke:#000000; stroke-linecap:round; stroke-linejoin:round; stroke-width:4; stroke-opacity:1; fill:none" points="1880.74,183.644 2030.74,183.644 2030.74,142.172 1880.74,142.172 1880.74,183.644 "/>
<path clip-path="url(#clip950)" d="M2077.99 146.762 L2077.99 151.322 Q2075.33 150.049 2072.96 149.424 Q2070.6 148.799 2068.4 148.799 Q2064.58 148.799 2062.5 150.28 Q2060.44 151.762 2060.44 154.493 Q2060.44 156.785 2061.81 157.966 Q2063.2 159.123 2067.04 159.841 L2069.86 160.419 Q2075.09 161.415 2077.57 163.938 Q2080.07 166.438 2080.07 170.651 Q2080.07 175.674 2076.69 178.266 Q2073.33 180.859 2066.83 180.859 Q2064.38 180.859 2061.6 180.303 Q2058.84 179.748 2055.88 178.66 L2055.88 173.845 Q2058.73 175.442 2061.46 176.253 Q2064.19 177.063 2066.83 177.063 Q2070.83 177.063 2073.01 175.489 Q2075.19 173.915 2075.19 170.998 Q2075.19 168.452 2073.61 167.016 Q2072.06 165.581 2068.5 164.864 L2065.65 164.308 Q2060.42 163.267 2058.08 161.044 Q2055.74 158.822 2055.74 154.864 Q2055.74 150.28 2058.96 147.642 Q2062.2 145.003 2067.87 145.003 Q2070.3 145.003 2072.83 145.443 Q2075.35 145.882 2077.99 146.762 Z" fill="#000000" fill-rule="nonzero" fill-opacity="1" /><path clip-path="url(#clip950)" d="M2098.96 167.155 Q2093.8 167.155 2091.81 168.336 Q2089.82 169.516 2089.82 172.364 Q2089.82 174.632 2091.3 175.975 Q2092.8 177.294 2095.37 177.294 Q2098.91 177.294 2101.04 174.794 Q2103.2 172.271 2103.2 168.104 L2103.2 167.155 L2098.96 167.155 M2107.46 165.396 L2107.46 180.188 L2103.2 180.188 L2103.2 176.253 Q2101.74 178.614 2099.56 179.748 Q2097.39 180.859 2094.24 180.859 Q2090.26 180.859 2087.89 178.637 Q2085.56 176.391 2085.56 172.641 Q2085.56 168.266 2088.47 166.044 Q2091.41 163.822 2097.22 163.822 L2103.2 163.822 L2103.2 163.405 Q2103.2 160.466 2101.25 158.868 Q2099.33 157.248 2095.83 157.248 Q2093.61 157.248 2091.51 157.78 Q2089.4 158.313 2087.46 159.378 L2087.46 155.442 Q2089.79 154.54 2091.99 154.1 Q2094.19 153.637 2096.27 153.637 Q2101.9 153.637 2104.68 156.554 Q2107.46 159.47 2107.46 165.396 Z" fill="#000000" fill-rule="nonzero" fill-opacity="1" /><path clip-path="url(#clip950)" d="M2136.41 159.239 Q2138.01 156.368 2140.23 155.003 Q2142.45 153.637 2145.46 153.637 Q2149.52 153.637 2151.71 156.484 Q2153.91 159.308 2153.91 164.54 L2153.91 180.188 L2149.63 180.188 L2149.63 164.679 Q2149.63 160.952 2148.31 159.146 Q2146.99 157.341 2144.28 157.341 Q2140.97 157.341 2139.05 159.54 Q2137.13 161.739 2137.13 165.535 L2137.13 180.188 L2132.85 180.188 L2132.85 164.679 Q2132.85 160.929 2131.53 159.146 Q2130.21 157.341 2127.45 157.341 Q2124.19 157.341 2122.27 159.563 Q2120.35 161.762 2120.35 165.535 L2120.35 180.188 L2116.07 180.188 L2116.07 154.262 L2120.35 154.262 L2120.35 158.29 Q2121.81 155.905 2123.84 154.771 Q2125.88 153.637 2128.68 153.637 Q2131.51 153.637 2133.47 155.072 Q2135.46 156.507 2136.41 159.239 Z" fill="#000000" fill-rule="nonzero" fill-opacity="1" /><path clip-path="url(#clip950)" d="M2166.53 176.299 L2166.53 190.049 L2162.25 190.049 L2162.25 154.262 L2166.53 154.262 L2166.53 158.197 Q2167.87 155.882 2169.91 154.771 Q2171.97 153.637 2174.82 153.637 Q2179.54 153.637 2182.48 157.387 Q2185.44 161.137 2185.44 167.248 Q2185.44 173.359 2182.48 177.109 Q2179.54 180.859 2174.82 180.859 Q2171.97 180.859 2169.91 179.748 Q2167.87 178.614 2166.53 176.299 M2181.02 167.248 Q2181.02 162.549 2179.08 159.887 Q2177.15 157.202 2173.77 157.202 Q2170.39 157.202 2168.45 159.887 Q2166.53 162.549 2166.53 167.248 Q2166.53 171.947 2168.45 174.632 Q2170.39 177.294 2173.77 177.294 Q2177.15 177.294 2179.08 174.632 Q2181.02 171.947 2181.02 167.248 Z" fill="#000000" fill-rule="nonzero" fill-opacity="1" /><path clip-path="url(#clip950)" d="M2192.5 144.169 L2196.76 144.169 L2196.76 180.188 L2192.5 180.188 L2192.5 144.169 Z" fill="#000000" fill-rule="nonzero" fill-opacity="1" /><path clip-path="url(#clip950)" d="M2227.85 166.16 L2227.85 168.243 L2208.26 168.243 Q2208.54 172.641 2210.9 174.956 Q2213.29 177.248 2217.52 177.248 Q2219.98 177.248 2222.27 176.646 Q2224.58 176.044 2226.85 174.841 L2226.85 178.868 Q2224.56 179.84 2222.15 180.35 Q2219.75 180.859 2217.27 180.859 Q2211.07 180.859 2207.43 177.248 Q2203.82 173.637 2203.82 167.479 Q2203.82 161.114 2207.25 157.387 Q2210.7 153.637 2216.53 153.637 Q2221.76 153.637 2224.79 157.017 Q2227.85 160.373 2227.85 166.16 M2223.59 164.91 Q2223.54 161.415 2221.62 159.331 Q2219.72 157.248 2216.57 157.248 Q2213.01 157.248 2210.86 159.262 Q2208.73 161.276 2208.4 164.933 L2223.59 164.91 Z" fill="#000000" fill-rule="nonzero" fill-opacity="1" /><path clip-path="url(#clip950)" d="M2251.37 155.026 L2251.37 159.054 Q2249.56 158.128 2247.62 157.665 Q2245.67 157.202 2243.59 157.202 Q2240.42 157.202 2238.82 158.174 Q2237.25 159.146 2237.25 161.091 Q2237.25 162.572 2238.38 163.429 Q2239.51 164.262 2242.94 165.026 L2244.4 165.35 Q2248.94 166.322 2250.83 168.104 Q2252.76 169.864 2252.76 173.035 Q2252.76 176.646 2249.88 178.753 Q2247.04 180.859 2242.04 180.859 Q2239.95 180.859 2237.69 180.442 Q2235.44 180.049 2232.94 179.239 L2232.94 174.841 Q2235.3 176.067 2237.59 176.692 Q2239.88 177.294 2242.13 177.294 Q2245.14 177.294 2246.76 176.276 Q2248.38 175.234 2248.38 173.359 Q2248.38 171.623 2247.2 170.697 Q2246.04 169.771 2242.08 168.915 L2240.6 168.567 Q2236.64 167.734 2234.88 166.021 Q2233.13 164.285 2233.13 161.276 Q2233.13 157.618 2235.72 155.628 Q2238.31 153.637 2243.08 153.637 Q2245.44 153.637 2247.52 153.984 Q2249.61 154.331 2251.37 155.026 Z" fill="#000000" fill-rule="nonzero" fill-opacity="1" /></svg>
