<?xml version="1.0" encoding="utf-8"?>
<svg xmlns="http://www.w3.org/2000/svg" xmlns:xlink="http://www.w3.org/1999/xlink" width="600" height="400" viewBox="0 0 2400 1600">
<defs>
  <clipPath id="clip650">
    <rect x="0" y="0" width="2400" height="1600"/>
  </clipPath>
</defs>
<path clip-path="url(#clip650)" d="M0 1600 L2400 1600 L2400 0 L0 0  Z" fill="#ffffff" fill-rule="evenodd" fill-opacity="1"/>
<defs>
  <clipPath id="clip651">
    <rect x="480" y="0" width="1681" height="1600"/>
  </clipPath>
</defs>
<path clip-path="url(#clip650)" d="M249.542 1423.18 L2352.76 1423.18 L2352.76 47.2441 L249.542 47.2441  Z" fill="#ffffff" fill-rule="evenodd" fill-opacity="1"/>
<defs>
  <clipPath id="clip652">
    <rect x="249" y="47" width="2104" height="1377"/>
  </clipPath>
</defs>
<polyline clip-path="url(#clip652)" style="stroke:#000000; stroke-linecap:round; stroke-linejoin:round; stroke-width:2; stroke-opacity:0.1; fill:none" points="423.718,1423.18 423.718,47.2441 "/>
<polyline clip-path="url(#clip652)" style="stroke:#000000; stroke-linecap:round; stroke-linejoin:round; stroke-width:2; stroke-opacity:0.1; fill:none" points="716.195,1423.18 716.195,47.2441 "/>
<polyline clip-path="url(#clip652)" style="stroke:#000000; stroke-linecap:round; stroke-linejoin:round; stroke-width:2; stroke-opacity:0.1; fill:none" points="1008.67,1423.18 1008.67,47.2441 "/>
<polyline clip-path="url(#clip652)" style="stroke:#000000; stroke-linecap:round; stroke-linejoin:round; stroke-width:2; stroke-opacity:0.1; fill:none" points="1301.15,1423.18 1301.15,47.2441 "/>
<polyline clip-path="url(#clip652)" style="stroke:#000000; stroke-linecap:round; stroke-linejoin:round; stroke-width:2; stroke-opacity:0.1; fill:none" points="1593.63,1423.18 1593.63,47.2441 "/>
<polyline clip-path="url(#clip652)" style="stroke:#000000; stroke-linecap:round; stroke-linejoin:round; stroke-width:2; stroke-opacity:0.1; fill:none" points="1886.1,1423.18 1886.1,47.2441 "/>
<polyline clip-path="url(#clip652)" style="stroke:#000000; stroke-linecap:round; stroke-linejoin:round; stroke-width:2; stroke-opacity:0.1; fill:none" points="2178.58,1423.18 2178.58,47.2441 "/>
<polyline clip-path="url(#clip650)" style="stroke:#000000; stroke-linecap:round; stroke-linejoin:round; stroke-width:4; stroke-opacity:1; fill:none" points="249.542,1423.18 2352.76,1423.18 "/>
<polyline clip-path="url(#clip650)" style="stroke:#000000; stroke-linecap:round; stroke-linejoin:round; stroke-width:4; stroke-opacity:1; fill:none" points="423.718,1423.18 423.718,1404.28 "/>
<polyline clip-path="url(#clip650)" style="stroke:#000000; stroke-linecap:round; stroke-linejoin:round; stroke-width:4; stroke-opacity:1; fill:none" points="716.195,1423.18 716.195,1404.28 "/>
<polyline clip-path="url(#clip650)" style="stroke:#000000; stroke-linecap:round; stroke-linejoin:round; stroke-width:4; stroke-opacity:1; fill:none" points="1008.67,1423.18 1008.67,1404.28 "/>
<polyline clip-path="url(#clip650)" style="stroke:#000000; stroke-linecap:round; stroke-linejoin:round; stroke-width:4; stroke-opacity:1; fill:none" points="1301.15,1423.18 1301.15,1404.28 "/>
<polyline clip-path="url(#clip650)" style="stroke:#000000; stroke-linecap:round; stroke-linejoin:round; stroke-width:4; stroke-opacity:1; fill:none" points="1593.63,1423.18 1593.63,1404.28 "/>
<polyline clip-path="url(#clip650)" style="stroke:#000000; stroke-linecap:round; stroke-linejoin:round; stroke-width:4; stroke-opacity:1; fill:none" points="1886.1,1423.18 1886.1,1404.28 "/>
<polyline clip-path="url(#clip650)" style="stroke:#000000; stroke-linecap:round; stroke-linejoin:round; stroke-width:4; stroke-opacity:1; fill:none" points="2178.58,1423.18 2178.58,1404.28 "/>
<path clip-path="url(#clip650)" d="M370.744 1468.75 L400.419 1468.75 L400.419 1472.69 L370.744 1472.69 L370.744 1468.75 Z" fill="#000000" fill-rule="nonzero" fill-opacity="1" /><path clip-path="url(#clip650)" d="M411.322 1481.64 L418.961 1481.64 L418.961 1455.28 L410.651 1456.95 L410.651 1452.69 L418.915 1451.02 L423.591 1451.02 L423.591 1481.64 L431.229 1481.64 L431.229 1485.58 L411.322 1485.58 L411.322 1481.64 Z" fill="#000000" fill-rule="nonzero" fill-opacity="1" /><path clip-path="url(#clip650)" d="M440.674 1479.7 L445.558 1479.7 L445.558 1485.58 L440.674 1485.58 L440.674 1479.7 Z" fill="#000000" fill-rule="nonzero" fill-opacity="1" /><path clip-path="url(#clip650)" d="M455.79 1451.02 L474.146 1451.02 L474.146 1454.96 L460.072 1454.96 L460.072 1463.43 Q461.09 1463.08 462.109 1462.92 Q463.127 1462.73 464.146 1462.73 Q469.933 1462.73 473.313 1465.9 Q476.692 1469.08 476.692 1474.49 Q476.692 1480.07 473.22 1483.17 Q469.748 1486.25 463.428 1486.25 Q461.252 1486.25 458.984 1485.88 Q456.739 1485.51 454.331 1484.77 L454.331 1480.07 Q456.415 1481.2 458.637 1481.76 Q460.859 1482.32 463.336 1482.32 Q467.34 1482.32 469.678 1480.21 Q472.016 1478.1 472.016 1474.49 Q472.016 1470.88 469.678 1468.77 Q467.34 1466.67 463.336 1466.67 Q461.461 1466.67 459.586 1467.08 Q457.734 1467.5 455.79 1468.38 L455.79 1451.02 Z" fill="#000000" fill-rule="nonzero" fill-opacity="1" /><path clip-path="url(#clip650)" d="M662.723 1468.75 L692.399 1468.75 L692.399 1472.69 L662.723 1472.69 L662.723 1468.75 Z" fill="#000000" fill-rule="nonzero" fill-opacity="1" /><path clip-path="url(#clip650)" d="M703.302 1481.64 L710.94 1481.64 L710.94 1455.28 L702.63 1456.95 L702.63 1452.69 L710.894 1451.02 L715.57 1451.02 L715.57 1481.64 L723.209 1481.64 L723.209 1485.58 L703.302 1485.58 L703.302 1481.64 Z" fill="#000000" fill-rule="nonzero" fill-opacity="1" /><path clip-path="url(#clip650)" d="M732.653 1479.7 L737.537 1479.7 L737.537 1485.58 L732.653 1485.58 L732.653 1479.7 Z" fill="#000000" fill-rule="nonzero" fill-opacity="1" /><path clip-path="url(#clip650)" d="M757.723 1454.1 Q754.111 1454.1 752.283 1457.66 Q750.477 1461.2 750.477 1468.33 Q750.477 1475.44 752.283 1479.01 Q754.111 1482.55 757.723 1482.55 Q761.357 1482.55 763.162 1479.01 Q764.991 1475.44 764.991 1468.33 Q764.991 1461.2 763.162 1457.66 Q761.357 1454.1 757.723 1454.1 M757.723 1450.39 Q763.533 1450.39 766.588 1455 Q769.667 1459.58 769.667 1468.33 Q769.667 1477.06 766.588 1481.67 Q763.533 1486.25 757.723 1486.25 Q751.912 1486.25 748.834 1481.67 Q745.778 1477.06 745.778 1468.33 Q745.778 1459.58 748.834 1455 Q751.912 1450.39 757.723 1450.39 Z" fill="#000000" fill-rule="nonzero" fill-opacity="1" /><path clip-path="url(#clip650)" d="M955.698 1468.75 L985.373 1468.75 L985.373 1472.69 L955.698 1472.69 L955.698 1468.75 Z" fill="#000000" fill-rule="nonzero" fill-opacity="1" /><path clip-path="url(#clip650)" d="M1005.47 1454.1 Q1001.85 1454.1 1000.03 1457.66 Q998.221 1461.2 998.221 1468.33 Q998.221 1475.44 1000.03 1479.01 Q1001.85 1482.55 1005.47 1482.55 Q1009.1 1482.55 1010.91 1479.01 Q1012.73 1475.44 1012.73 1468.33 Q1012.73 1461.2 1010.91 1457.66 Q1009.1 1454.1 1005.47 1454.1 M1005.47 1450.39 Q1011.28 1450.39 1014.33 1455 Q1017.41 1459.58 1017.41 1468.33 Q1017.41 1477.06 1014.33 1481.67 Q1011.28 1486.25 1005.47 1486.25 Q999.656 1486.25 996.577 1481.67 Q993.522 1477.06 993.522 1468.33 Q993.522 1459.58 996.577 1455 Q999.656 1450.39 1005.47 1450.39 Z" fill="#000000" fill-rule="nonzero" fill-opacity="1" /><path clip-path="url(#clip650)" d="M1025.63 1479.7 L1030.51 1479.7 L1030.51 1485.58 L1025.63 1485.58 L1025.63 1479.7 Z" fill="#000000" fill-rule="nonzero" fill-opacity="1" /><path clip-path="url(#clip650)" d="M1040.74 1451.02 L1059.1 1451.02 L1059.1 1454.96 L1045.03 1454.96 L1045.03 1463.43 Q1046.04 1463.08 1047.06 1462.92 Q1048.08 1462.73 1049.1 1462.73 Q1054.89 1462.73 1058.27 1465.9 Q1061.65 1469.08 1061.65 1474.49 Q1061.65 1480.07 1058.17 1483.17 Q1054.7 1486.25 1048.38 1486.25 Q1046.21 1486.25 1043.94 1485.88 Q1041.69 1485.51 1039.29 1484.77 L1039.29 1480.07 Q1041.37 1481.2 1043.59 1481.76 Q1045.81 1482.32 1048.29 1482.32 Q1052.29 1482.32 1054.63 1480.21 Q1056.97 1478.1 1056.97 1474.49 Q1056.97 1470.88 1054.63 1468.77 Q1052.29 1466.67 1048.29 1466.67 Q1046.41 1466.67 1044.54 1467.08 Q1042.69 1467.5 1040.74 1468.38 L1040.74 1451.02 Z" fill="#000000" fill-rule="nonzero" fill-opacity="1" /><path clip-path="url(#clip650)" d="M1278.53 1454.1 Q1274.92 1454.1 1273.09 1457.66 Q1271.29 1461.2 1271.29 1468.33 Q1271.29 1475.44 1273.09 1479.01 Q1274.92 1482.55 1278.53 1482.55 Q1282.17 1482.55 1283.97 1479.01 Q1285.8 1475.44 1285.8 1468.33 Q1285.8 1461.2 1283.97 1457.66 Q1282.17 1454.1 1278.53 1454.1 M1278.53 1450.39 Q1284.34 1450.39 1287.4 1455 Q1290.48 1459.58 1290.48 1468.33 Q1290.48 1477.06 1287.4 1481.67 Q1284.34 1486.25 1278.53 1486.25 Q1272.72 1486.25 1269.64 1481.67 Q1266.59 1477.06 1266.59 1468.33 Q1266.59 1459.58 1269.64 1455 Q1272.72 1450.39 1278.53 1450.39 Z" fill="#000000" fill-rule="nonzero" fill-opacity="1" /><path clip-path="url(#clip650)" d="M1298.7 1479.7 L1303.58 1479.7 L1303.58 1485.58 L1298.7 1485.58 L1298.7 1479.7 Z" fill="#000000" fill-rule="nonzero" fill-opacity="1" /><path clip-path="url(#clip650)" d="M1323.76 1454.1 Q1320.15 1454.1 1318.32 1457.66 Q1316.52 1461.2 1316.52 1468.33 Q1316.52 1475.44 1318.32 1479.01 Q1320.15 1482.55 1323.76 1482.55 Q1327.4 1482.55 1329.2 1479.01 Q1331.03 1475.44 1331.03 1468.33 Q1331.03 1461.2 1329.2 1457.66 Q1327.4 1454.1 1323.76 1454.1 M1323.76 1450.39 Q1329.57 1450.39 1332.63 1455 Q1335.71 1459.58 1335.71 1468.33 Q1335.71 1477.06 1332.63 1481.67 Q1329.57 1486.25 1323.76 1486.25 Q1317.95 1486.25 1314.88 1481.67 Q1311.82 1477.06 1311.82 1468.33 Q1311.82 1459.58 1314.88 1455 Q1317.95 1450.39 1323.76 1450.39 Z" fill="#000000" fill-rule="nonzero" fill-opacity="1" /><path clip-path="url(#clip650)" d="M1571.51 1454.1 Q1567.9 1454.1 1566.07 1457.66 Q1564.26 1461.2 1564.26 1468.33 Q1564.26 1475.44 1566.07 1479.01 Q1567.9 1482.55 1571.51 1482.55 Q1575.14 1482.55 1576.95 1479.01 Q1578.78 1475.44 1578.78 1468.33 Q1578.78 1461.2 1576.95 1457.66 Q1575.14 1454.1 1571.51 1454.1 M1571.51 1450.39 Q1577.32 1450.39 1580.37 1455 Q1583.45 1459.58 1583.45 1468.33 Q1583.45 1477.06 1580.37 1481.67 Q1577.32 1486.25 1571.51 1486.25 Q1565.7 1486.25 1562.62 1481.67 Q1559.56 1477.06 1559.56 1468.33 Q1559.56 1459.58 1562.62 1455 Q1565.7 1450.39 1571.51 1450.39 Z" fill="#000000" fill-rule="nonzero" fill-opacity="1" /><path clip-path="url(#clip650)" d="M1591.67 1479.7 L1596.55 1479.7 L1596.55 1485.58 L1591.67 1485.58 L1591.67 1479.7 Z" fill="#000000" fill-rule="nonzero" fill-opacity="1" /><path clip-path="url(#clip650)" d="M1606.79 1451.02 L1625.14 1451.02 L1625.14 1454.96 L1611.07 1454.96 L1611.07 1463.43 Q1612.09 1463.08 1613.11 1462.92 Q1614.12 1462.73 1615.14 1462.73 Q1620.93 1462.73 1624.31 1465.9 Q1627.69 1469.08 1627.69 1474.49 Q1627.69 1480.07 1624.22 1483.17 Q1620.74 1486.25 1614.42 1486.25 Q1612.25 1486.25 1609.98 1485.88 Q1607.73 1485.51 1605.33 1484.77 L1605.33 1480.07 Q1607.41 1481.2 1609.63 1481.76 Q1611.86 1482.32 1614.33 1482.32 Q1618.34 1482.32 1620.67 1480.21 Q1623.01 1478.1 1623.01 1474.49 Q1623.01 1470.88 1620.67 1468.77 Q1618.34 1466.67 1614.33 1466.67 Q1612.46 1466.67 1610.58 1467.08 Q1608.73 1467.5 1606.79 1468.38 L1606.79 1451.02 Z" fill="#000000" fill-rule="nonzero" fill-opacity="1" /><path clip-path="url(#clip650)" d="M1853.26 1481.64 L1860.89 1481.64 L1860.89 1455.28 L1852.58 1456.95 L1852.58 1452.69 L1860.85 1451.02 L1865.52 1451.02 L1865.52 1481.64 L1873.16 1481.64 L1873.16 1485.58 L1853.26 1485.58 L1853.26 1481.64 Z" fill="#000000" fill-rule="nonzero" fill-opacity="1" /><path clip-path="url(#clip650)" d="M1882.61 1479.7 L1887.49 1479.7 L1887.49 1485.58 L1882.61 1485.58 L1882.61 1479.7 Z" fill="#000000" fill-rule="nonzero" fill-opacity="1" /><path clip-path="url(#clip650)" d="M1907.68 1454.1 Q1904.07 1454.1 1902.24 1457.66 Q1900.43 1461.2 1900.43 1468.33 Q1900.43 1475.44 1902.24 1479.01 Q1904.07 1482.55 1907.68 1482.55 Q1911.31 1482.55 1913.12 1479.01 Q1914.95 1475.44 1914.95 1468.33 Q1914.95 1461.2 1913.12 1457.66 Q1911.31 1454.1 1907.68 1454.1 M1907.68 1450.39 Q1913.49 1450.39 1916.54 1455 Q1919.62 1459.58 1919.62 1468.33 Q1919.62 1477.06 1916.54 1481.67 Q1913.49 1486.25 1907.68 1486.25 Q1901.87 1486.25 1898.79 1481.67 Q1895.73 1477.06 1895.73 1468.33 Q1895.73 1459.58 1898.79 1455 Q1901.87 1450.39 1907.68 1450.39 Z" fill="#000000" fill-rule="nonzero" fill-opacity="1" /><path clip-path="url(#clip650)" d="M2146.23 1481.64 L2153.87 1481.64 L2153.87 1455.28 L2145.56 1456.95 L2145.56 1452.69 L2153.82 1451.02 L2158.5 1451.02 L2158.5 1481.64 L2166.14 1481.64 L2166.14 1485.58 L2146.23 1485.58 L2146.23 1481.64 Z" fill="#000000" fill-rule="nonzero" fill-opacity="1" /><path clip-path="url(#clip650)" d="M2175.58 1479.7 L2180.47 1479.7 L2180.47 1485.58 L2175.58 1485.58 L2175.58 1479.7 Z" fill="#000000" fill-rule="nonzero" fill-opacity="1" /><path clip-path="url(#clip650)" d="M2190.7 1451.02 L2209.05 1451.02 L2209.05 1454.96 L2194.98 1454.96 L2194.98 1463.43 Q2196 1463.08 2197.02 1462.92 Q2198.04 1462.73 2199.05 1462.73 Q2204.84 1462.73 2208.22 1465.9 Q2211.6 1469.08 2211.6 1474.49 Q2211.6 1480.07 2208.13 1483.17 Q2204.66 1486.25 2198.34 1486.25 Q2196.16 1486.25 2193.89 1485.88 Q2191.65 1485.51 2189.24 1484.77 L2189.24 1480.07 Q2191.32 1481.2 2193.55 1481.76 Q2195.77 1482.32 2198.24 1482.32 Q2202.25 1482.32 2204.59 1480.21 Q2206.92 1478.1 2206.92 1474.49 Q2206.92 1470.88 2204.59 1468.77 Q2202.25 1466.67 2198.24 1466.67 Q2196.37 1466.67 2194.49 1467.08 Q2192.64 1467.5 2190.7 1468.38 L2190.7 1451.02 Z" fill="#000000" fill-rule="nonzero" fill-opacity="1" /><path clip-path="url(#clip650)" d="M1317.76 1532.4 L1304.87 1549.74 L1318.43 1568.04 L1311.53 1568.04 L1301.15 1554.04 L1290.77 1568.04 L1283.87 1568.04 L1297.71 1549.39 L1285.04 1532.4 L1291.95 1532.4 L1301.4 1545.1 L1310.86 1532.4 L1317.76 1532.4 Z" fill="#000000" fill-rule="nonzero" fill-opacity="1" /><polyline clip-path="url(#clip652)" style="stroke:#000000; stroke-linecap:round; stroke-linejoin:round; stroke-width:2; stroke-opacity:0.1; fill:none" points="249.542,1423.18 2352.76,1423.18 "/>
<polyline clip-path="url(#clip652)" style="stroke:#000000; stroke-linecap:round; stroke-linejoin:round; stroke-width:2; stroke-opacity:0.1; fill:none" points="249.542,1140.3 2352.76,1140.3 "/>
<polyline clip-path="url(#clip652)" style="stroke:#000000; stroke-linecap:round; stroke-linejoin:round; stroke-width:2; stroke-opacity:0.1; fill:none" points="249.542,857.417 2352.76,857.417 "/>
<polyline clip-path="url(#clip652)" style="stroke:#000000; stroke-linecap:round; stroke-linejoin:round; stroke-width:2; stroke-opacity:0.1; fill:none" points="249.542,574.535 2352.76,574.535 "/>
<polyline clip-path="url(#clip652)" style="stroke:#000000; stroke-linecap:round; stroke-linejoin:round; stroke-width:2; stroke-opacity:0.1; fill:none" points="249.542,291.654 2352.76,291.654 "/>
<polyline clip-path="url(#clip650)" style="stroke:#000000; stroke-linecap:round; stroke-linejoin:round; stroke-width:4; stroke-opacity:1; fill:none" points="249.542,1423.18 249.542,47.2441 "/>
<polyline clip-path="url(#clip650)" style="stroke:#000000; stroke-linecap:round; stroke-linejoin:round; stroke-width:4; stroke-opacity:1; fill:none" points="249.542,1423.18 268.44,1423.18 "/>
<polyline clip-path="url(#clip650)" style="stroke:#000000; stroke-linecap:round; stroke-linejoin:round; stroke-width:4; stroke-opacity:1; fill:none" points="249.542,1140.3 268.44,1140.3 "/>
<polyline clip-path="url(#clip650)" style="stroke:#000000; stroke-linecap:round; stroke-linejoin:round; stroke-width:4; stroke-opacity:1; fill:none" points="249.542,857.417 268.44,857.417 "/>
<polyline clip-path="url(#clip650)" style="stroke:#000000; stroke-linecap:round; stroke-linejoin:round; stroke-width:4; stroke-opacity:1; fill:none" points="249.542,574.535 268.44,574.535 "/>
<polyline clip-path="url(#clip650)" style="stroke:#000000; stroke-linecap:round; stroke-linejoin:round; stroke-width:4; stroke-opacity:1; fill:none" points="249.542,291.654 268.44,291.654 "/>
<path clip-path="url(#clip650)" d="M126.205 1408.98 Q122.593 1408.98 120.765 1412.54 Q118.959 1416.08 118.959 1423.21 Q118.959 1430.32 120.765 1433.89 Q122.593 1437.43 126.205 1437.43 Q129.839 1437.43 131.644 1433.89 Q133.473 1430.32 133.473 1423.21 Q133.473 1416.08 131.644 1412.54 Q129.839 1408.98 126.205 1408.98 M126.205 1405.27 Q132.015 1405.27 135.07 1409.88 Q138.149 1414.46 138.149 1423.21 Q138.149 1431.94 135.07 1436.55 Q132.015 1441.13 126.205 1441.13 Q120.394 1441.13 117.316 1436.55 Q114.26 1431.94 114.26 1423.21 Q114.26 1414.46 117.316 1409.88 Q120.394 1405.27 126.205 1405.27 Z" fill="#000000" fill-rule="nonzero" fill-opacity="1" /><path clip-path="url(#clip650)" d="M146.366 1434.58 L151.251 1434.58 L151.251 1440.46 L146.366 1440.46 L146.366 1434.58 Z" fill="#000000" fill-rule="nonzero" fill-opacity="1" /><path clip-path="url(#clip650)" d="M171.436 1408.98 Q167.825 1408.98 165.996 1412.54 Q164.19 1416.08 164.19 1423.21 Q164.19 1430.32 165.996 1433.89 Q167.825 1437.43 171.436 1437.43 Q175.07 1437.43 176.876 1433.89 Q178.704 1430.32 178.704 1423.21 Q178.704 1416.08 176.876 1412.54 Q175.07 1408.98 171.436 1408.98 M171.436 1405.27 Q177.246 1405.27 180.301 1409.88 Q183.38 1414.46 183.38 1423.21 Q183.38 1431.94 180.301 1436.55 Q177.246 1441.13 171.436 1441.13 Q165.626 1441.13 162.547 1436.55 Q159.491 1431.94 159.491 1423.21 Q159.491 1414.46 162.547 1409.88 Q165.626 1405.27 171.436 1405.27 Z" fill="#000000" fill-rule="nonzero" fill-opacity="1" /><path clip-path="url(#clip650)" d="M201.598 1408.98 Q197.987 1408.98 196.158 1412.54 Q194.352 1416.08 194.352 1423.21 Q194.352 1430.32 196.158 1433.89 Q197.987 1437.43 201.598 1437.43 Q205.232 1437.43 207.037 1433.89 Q208.866 1430.32 208.866 1423.21 Q208.866 1416.08 207.037 1412.54 Q205.232 1408.98 201.598 1408.98 M201.598 1405.27 Q207.408 1405.27 210.463 1409.88 Q213.542 1414.46 213.542 1423.21 Q213.542 1431.94 210.463 1436.55 Q207.408 1441.13 201.598 1441.13 Q195.787 1441.13 192.709 1436.55 Q189.653 1431.94 189.653 1423.21 Q189.653 1414.46 192.709 1409.88 Q195.787 1405.27 201.598 1405.27 Z" fill="#000000" fill-rule="nonzero" fill-opacity="1" /><path clip-path="url(#clip650)" d="M127.2 1126.1 Q123.589 1126.1 121.76 1129.66 Q119.955 1133.2 119.955 1140.33 Q119.955 1147.44 121.76 1151 Q123.589 1154.55 127.2 1154.55 Q130.834 1154.55 132.64 1151 Q134.468 1147.44 134.468 1140.33 Q134.468 1133.2 132.64 1129.66 Q130.834 1126.1 127.2 1126.1 M127.2 1122.39 Q133.01 1122.39 136.066 1127 Q139.144 1131.58 139.144 1140.33 Q139.144 1149.06 136.066 1153.67 Q133.01 1158.25 127.2 1158.25 Q121.39 1158.25 118.311 1153.67 Q115.256 1149.06 115.256 1140.33 Q115.256 1131.58 118.311 1127 Q121.39 1122.39 127.2 1122.39 Z" fill="#000000" fill-rule="nonzero" fill-opacity="1" /><path clip-path="url(#clip650)" d="M147.362 1151.7 L152.246 1151.7 L152.246 1157.58 L147.362 1157.58 L147.362 1151.7 Z" fill="#000000" fill-rule="nonzero" fill-opacity="1" /><path clip-path="url(#clip650)" d="M166.459 1153.64 L182.778 1153.64 L182.778 1157.58 L160.834 1157.58 L160.834 1153.64 Q163.496 1150.89 168.079 1146.26 Q172.686 1141.61 173.866 1140.26 Q176.112 1137.74 176.991 1136 Q177.894 1134.25 177.894 1132.56 Q177.894 1129.8 175.95 1128.06 Q174.028 1126.33 170.927 1126.33 Q168.727 1126.33 166.274 1127.09 Q163.843 1127.86 161.065 1129.41 L161.065 1124.68 Q163.89 1123.55 166.343 1122.97 Q168.797 1122.39 170.834 1122.39 Q176.204 1122.39 179.399 1125.08 Q182.593 1127.76 182.593 1132.25 Q182.593 1134.38 181.783 1136.31 Q180.996 1138.2 178.889 1140.8 Q178.311 1141.47 175.209 1144.68 Q172.107 1147.88 166.459 1153.64 Z" fill="#000000" fill-rule="nonzero" fill-opacity="1" /><path clip-path="url(#clip650)" d="M192.639 1123.02 L210.996 1123.02 L210.996 1126.95 L196.922 1126.95 L196.922 1135.43 Q197.94 1135.08 198.959 1134.92 Q199.977 1134.73 200.996 1134.73 Q206.783 1134.73 210.162 1137.9 Q213.542 1141.07 213.542 1146.49 Q213.542 1152.07 210.07 1155.17 Q206.598 1158.25 200.278 1158.25 Q198.102 1158.25 195.834 1157.88 Q193.588 1157.51 191.181 1156.77 L191.181 1152.07 Q193.264 1153.2 195.487 1153.76 Q197.709 1154.31 200.186 1154.31 Q204.19 1154.31 206.528 1152.21 Q208.866 1150.1 208.866 1146.49 Q208.866 1142.88 206.528 1140.77 Q204.19 1138.67 200.186 1138.67 Q198.311 1138.67 196.436 1139.08 Q194.584 1139.5 192.639 1140.38 L192.639 1123.02 Z" fill="#000000" fill-rule="nonzero" fill-opacity="1" /><path clip-path="url(#clip650)" d="M126.205 843.215 Q122.593 843.215 120.765 846.78 Q118.959 850.322 118.959 857.452 Q118.959 864.558 120.765 868.123 Q122.593 871.664 126.205 871.664 Q129.839 871.664 131.644 868.123 Q133.473 864.558 133.473 857.452 Q133.473 850.322 131.644 846.78 Q129.839 843.215 126.205 843.215 M126.205 839.512 Q132.015 839.512 135.07 844.118 Q138.149 848.702 138.149 857.452 Q138.149 866.178 135.07 870.785 Q132.015 875.368 126.205 875.368 Q120.394 875.368 117.316 870.785 Q114.26 866.178 114.26 857.452 Q114.26 848.702 117.316 844.118 Q120.394 839.512 126.205 839.512 Z" fill="#000000" fill-rule="nonzero" fill-opacity="1" /><path clip-path="url(#clip650)" d="M146.366 868.817 L151.251 868.817 L151.251 874.697 L146.366 874.697 L146.366 868.817 Z" fill="#000000" fill-rule="nonzero" fill-opacity="1" /><path clip-path="url(#clip650)" d="M161.482 840.137 L179.839 840.137 L179.839 844.072 L165.765 844.072 L165.765 852.544 Q166.783 852.197 167.802 852.035 Q168.82 851.85 169.839 851.85 Q175.626 851.85 179.005 855.021 Q182.385 858.192 182.385 863.609 Q182.385 869.188 178.913 872.289 Q175.44 875.368 169.121 875.368 Q166.945 875.368 164.677 874.998 Q162.431 874.627 160.024 873.887 L160.024 869.188 Q162.107 870.322 164.329 870.877 Q166.552 871.433 169.028 871.433 Q173.033 871.433 175.371 869.326 Q177.709 867.22 177.709 863.609 Q177.709 859.998 175.371 857.891 Q173.033 855.785 169.028 855.785 Q167.153 855.785 165.278 856.202 Q163.427 856.618 161.482 857.498 L161.482 840.137 Z" fill="#000000" fill-rule="nonzero" fill-opacity="1" /><path clip-path="url(#clip650)" d="M201.598 843.215 Q197.987 843.215 196.158 846.78 Q194.352 850.322 194.352 857.452 Q194.352 864.558 196.158 868.123 Q197.987 871.664 201.598 871.664 Q205.232 871.664 207.037 868.123 Q208.866 864.558 208.866 857.452 Q208.866 850.322 207.037 846.78 Q205.232 843.215 201.598 843.215 M201.598 839.512 Q207.408 839.512 210.463 844.118 Q213.542 848.702 213.542 857.452 Q213.542 866.178 210.463 870.785 Q207.408 875.368 201.598 875.368 Q195.787 875.368 192.709 870.785 Q189.653 866.178 189.653 857.452 Q189.653 848.702 192.709 844.118 Q195.787 839.512 201.598 839.512 Z" fill="#000000" fill-rule="nonzero" fill-opacity="1" /><path clip-path="url(#clip650)" d="M127.2 560.334 Q123.589 560.334 121.76 563.899 Q119.955 567.44 119.955 574.57 Q119.955 581.676 121.76 585.241 Q123.589 588.783 127.2 588.783 Q130.834 588.783 132.64 585.241 Q134.468 581.676 134.468 574.57 Q134.468 567.44 132.64 563.899 Q130.834 560.334 127.2 560.334 M127.2 556.63 Q133.01 556.63 136.066 561.237 Q139.144 565.82 139.144 574.57 Q139.144 583.297 136.066 587.903 Q133.01 592.487 127.2 592.487 Q121.39 592.487 118.311 587.903 Q115.256 583.297 115.256 574.57 Q115.256 565.82 118.311 561.237 Q121.39 556.63 127.2 556.63 Z" fill="#000000" fill-rule="nonzero" fill-opacity="1" /><path clip-path="url(#clip650)" d="M147.362 585.936 L152.246 585.936 L152.246 591.815 L147.362 591.815 L147.362 585.936 Z" fill="#000000" fill-rule="nonzero" fill-opacity="1" /><path clip-path="url(#clip650)" d="M161.251 557.255 L183.473 557.255 L183.473 559.246 L170.927 591.815 L166.042 591.815 L177.848 561.19 L161.251 561.19 L161.251 557.255 Z" fill="#000000" fill-rule="nonzero" fill-opacity="1" /><path clip-path="url(#clip650)" d="M192.639 557.255 L210.996 557.255 L210.996 561.19 L196.922 561.19 L196.922 569.663 Q197.94 569.315 198.959 569.153 Q199.977 568.968 200.996 568.968 Q206.783 568.968 210.162 572.139 Q213.542 575.311 213.542 580.727 Q213.542 586.306 210.07 589.408 Q206.598 592.487 200.278 592.487 Q198.102 592.487 195.834 592.116 Q193.588 591.746 191.181 591.005 L191.181 586.306 Q193.264 587.44 195.487 587.996 Q197.709 588.551 200.186 588.551 Q204.19 588.551 206.528 586.445 Q208.866 584.338 208.866 580.727 Q208.866 577.116 206.528 575.01 Q204.19 572.903 200.186 572.903 Q198.311 572.903 196.436 573.32 Q194.584 573.737 192.639 574.616 L192.639 557.255 Z" fill="#000000" fill-rule="nonzero" fill-opacity="1" /><path clip-path="url(#clip650)" d="M117.015 304.999 L124.654 304.999 L124.654 278.633 L116.343 280.3 L116.343 276.04 L124.607 274.374 L129.283 274.374 L129.283 304.999 L136.922 304.999 L136.922 308.934 L117.015 308.934 L117.015 304.999 Z" fill="#000000" fill-rule="nonzero" fill-opacity="1" /><path clip-path="url(#clip650)" d="M146.366 303.054 L151.251 303.054 L151.251 308.934 L146.366 308.934 L146.366 303.054 Z" fill="#000000" fill-rule="nonzero" fill-opacity="1" /><path clip-path="url(#clip650)" d="M171.436 277.452 Q167.825 277.452 165.996 281.017 Q164.19 284.559 164.19 291.688 Q164.19 298.795 165.996 302.36 Q167.825 305.901 171.436 305.901 Q175.07 305.901 176.876 302.36 Q178.704 298.795 178.704 291.688 Q178.704 284.559 176.876 281.017 Q175.07 277.452 171.436 277.452 M171.436 273.749 Q177.246 273.749 180.301 278.355 Q183.38 282.939 183.38 291.688 Q183.38 300.415 180.301 305.022 Q177.246 309.605 171.436 309.605 Q165.626 309.605 162.547 305.022 Q159.491 300.415 159.491 291.688 Q159.491 282.939 162.547 278.355 Q165.626 273.749 171.436 273.749 Z" fill="#000000" fill-rule="nonzero" fill-opacity="1" /><path clip-path="url(#clip650)" d="M201.598 277.452 Q197.987 277.452 196.158 281.017 Q194.352 284.559 194.352 291.688 Q194.352 298.795 196.158 302.36 Q197.987 305.901 201.598 305.901 Q205.232 305.901 207.037 302.36 Q208.866 298.795 208.866 291.688 Q208.866 284.559 207.037 281.017 Q205.232 277.452 201.598 277.452 M201.598 273.749 Q207.408 273.749 210.463 278.355 Q213.542 282.939 213.542 291.688 Q213.542 300.415 210.463 305.022 Q207.408 309.605 201.598 309.605 Q195.787 309.605 192.709 305.022 Q189.653 300.415 189.653 291.688 Q189.653 282.939 192.709 278.355 Q195.787 273.749 201.598 273.749 Z" fill="#000000" fill-rule="nonzero" fill-opacity="1" /><path clip-path="url(#clip650)" d="M16.4842 899.415 L16.4842 872.106 L21.895 872.106 L21.895 892.986 L35.8996 892.986 L35.8996 874.144 L41.3104 874.144 L41.3104 892.986 L64.0042 892.986 L64.0042 899.415 L16.4842 899.415 Z" fill="#000000" fill-rule="nonzero" fill-opacity="1" /><path clip-path="url(#clip650)" d="M33.8307 846.262 Q33.2578 847.248 33.0032 848.426 Q32.7167 849.572 32.7167 850.972 Q32.7167 855.938 35.9632 858.611 Q39.1779 861.253 45.2253 861.253 L64.0042 861.253 L64.0042 867.141 L28.3562 867.141 L28.3562 861.253 L33.8944 861.253 Q30.6479 859.407 29.0883 856.447 Q27.4968 853.487 27.4968 849.254 Q27.4968 848.649 27.5923 847.917 Q27.656 847.185 27.8151 846.294 L33.8307 846.262 Z" fill="#000000" fill-rule="nonzero" fill-opacity="1" /><path clip-path="url(#clip650)" d="M44.7161 811.059 L47.5806 811.059 L47.5806 837.986 Q53.6281 837.604 56.8109 834.358 Q59.9619 831.08 59.9619 825.255 Q59.9619 821.881 59.1344 818.73 Q58.3069 815.547 56.6518 812.428 L62.1899 812.428 Q63.5267 815.579 64.227 818.889 Q64.9272 822.199 64.9272 825.605 Q64.9272 834.135 59.9619 839.132 Q54.9967 844.097 46.5303 844.097 Q37.7774 844.097 32.6531 839.387 Q27.4968 834.644 27.4968 826.624 Q27.4968 819.43 32.1438 815.261 Q36.7589 811.059 44.7161 811.059 M42.9973 816.916 Q38.1912 816.979 35.3266 819.621 Q32.4621 822.231 32.4621 826.56 Q32.4621 831.461 35.2312 834.422 Q38.0002 837.35 43.0292 837.795 L42.9973 816.916 Z" fill="#000000" fill-rule="nonzero" fill-opacity="1" /><path clip-path="url(#clip650)" d="M46.212 797.946 Q52.6732 797.946 56.3653 795.304 Q60.0256 792.631 60.0256 787.984 Q60.0256 783.337 56.3653 780.663 Q52.6732 777.99 46.212 777.99 Q39.7508 777.99 36.0905 780.663 Q32.3984 783.337 32.3984 787.984 Q32.3984 792.631 36.0905 795.304 Q39.7508 797.946 46.212 797.946 M58.657 777.99 Q61.8398 779.836 63.3994 782.668 Q64.9272 785.469 64.9272 789.416 Q64.9272 795.877 59.771 799.951 Q54.6147 803.993 46.212 803.993 Q37.8093 803.993 32.6531 799.951 Q27.4968 795.877 27.4968 789.416 Q27.4968 785.469 29.0564 782.668 Q30.5842 779.836 33.7671 777.99 L28.3562 777.99 L28.3562 772.133 L77.5631 772.133 L77.5631 777.99 L58.657 777.99 Z" fill="#000000" fill-rule="nonzero" fill-opacity="1" /><path clip-path="url(#clip650)" d="M49.9359 760.675 L28.3562 760.675 L28.3562 754.818 L49.7131 754.818 Q54.7739 754.818 57.3202 752.845 Q59.8346 750.872 59.8346 746.925 Q59.8346 742.182 56.8109 739.445 Q53.7872 736.676 48.5673 736.676 L28.3562 736.676 L28.3562 730.82 L64.0042 730.82 L64.0042 736.676 L58.5296 736.676 Q61.7762 738.809 63.3676 741.641 Q64.9272 744.442 64.9272 748.166 Q64.9272 754.309 61.1078 757.492 Q57.2883 760.675 49.9359 760.675 M27.4968 745.938 L27.4968 745.938 Z" fill="#000000" fill-rule="nonzero" fill-opacity="1" /><path clip-path="url(#clip650)" d="M44.7161 688.265 L47.5806 688.265 L47.5806 715.192 Q53.6281 714.81 56.8109 711.563 Q59.9619 708.285 59.9619 702.46 Q59.9619 699.087 59.1344 695.936 Q58.3069 692.753 56.6518 689.634 L62.1899 689.634 Q63.5267 692.785 64.227 696.095 Q64.9272 699.405 64.9272 702.811 Q64.9272 711.341 59.9619 716.338 Q54.9967 721.303 46.5303 721.303 Q37.7774 721.303 32.6531 716.592 Q27.4968 711.85 27.4968 703.829 Q27.4968 696.636 32.1438 692.466 Q36.7589 688.265 44.7161 688.265 M42.9973 694.121 Q38.1912 694.185 35.3266 696.827 Q32.4621 699.437 32.4621 703.765 Q32.4621 708.667 35.2312 711.627 Q38.0002 714.555 43.0292 715.001 L42.9973 694.121 Z" fill="#000000" fill-rule="nonzero" fill-opacity="1" /><path clip-path="url(#clip650)" d="M42.4881 649.02 L64.0042 649.02 L64.0042 654.877 L42.679 654.877 Q37.6183 654.877 35.1038 656.85 Q32.5894 658.823 32.5894 662.77 Q32.5894 667.513 35.6131 670.25 Q38.6368 672.987 43.8567 672.987 L64.0042 672.987 L64.0042 678.875 L28.3562 678.875 L28.3562 672.987 L33.8944 672.987 Q30.6797 670.887 29.0883 668.054 Q27.4968 665.189 27.4968 661.465 Q27.4968 655.322 31.3163 652.171 Q35.1038 649.02 42.4881 649.02 Z" fill="#000000" fill-rule="nonzero" fill-opacity="1" /><path clip-path="url(#clip650)" d="M29.7248 611.685 L35.1993 611.685 Q33.8307 614.168 33.1623 616.683 Q32.4621 619.165 32.4621 621.711 Q32.4621 627.409 36.0905 630.56 Q39.6872 633.711 46.212 633.711 Q52.7369 633.711 56.3653 630.56 Q59.9619 627.409 59.9619 621.711 Q59.9619 619.165 59.2935 616.683 Q58.5933 614.168 57.2247 611.685 L62.6355 611.685 Q63.7814 614.136 64.3543 616.778 Q64.9272 619.388 64.9272 622.348 Q64.9272 630.401 59.8664 635.143 Q54.8057 639.886 46.212 639.886 Q37.491 639.886 32.4939 635.111 Q27.4968 630.305 27.4968 621.966 Q27.4968 619.261 28.0697 616.683 Q28.6108 614.104 29.7248 611.685 Z" fill="#000000" fill-rule="nonzero" fill-opacity="1" /><path clip-path="url(#clip650)" d="M67.3143 586.668 Q73.68 589.151 75.6216 591.506 Q77.5631 593.861 77.5631 597.808 L77.5631 602.487 L72.6615 602.487 L72.6615 599.05 Q72.6615 596.631 71.5157 595.294 Q70.3699 593.957 66.1048 592.334 L63.4312 591.283 L28.3562 605.702 L28.3562 599.495 L56.238 588.355 L28.3562 577.215 L28.3562 571.009 L67.3143 586.668 Z" fill="#000000" fill-rule="nonzero" fill-opacity="1" /><path clip-path="url(#clip652)" d="M365.223 1422.61 L365.223 1423.18 L482.213 1423.18 L482.213 1422.61 L365.223 1422.61 L365.223 1422.61  Z" fill="#009af9" fill-rule="evenodd" fill-opacity="1"/>
<polyline clip-path="url(#clip652)" style="stroke:#000000; stroke-linecap:round; stroke-linejoin:round; stroke-width:4; stroke-opacity:1; fill:none" points="365.223,1422.61 365.223,1423.18 482.213,1423.18 482.213,1422.61 365.223,1422.61 "/>
<path clip-path="url(#clip652)" d="M482.213 1291.92 L482.213 1423.18 L599.204 1423.18 L599.204 1291.92 L482.213 1291.92 L482.213 1291.92  Z" fill="#009af9" fill-rule="evenodd" fill-opacity="1"/>
<polyline clip-path="url(#clip652)" style="stroke:#000000; stroke-linecap:round; stroke-linejoin:round; stroke-width:4; stroke-opacity:1; fill:none" points="482.213,1291.92 482.213,1423.18 599.204,1423.18 599.204,1291.92 482.213,1291.92 "/>
<path clip-path="url(#clip652)" d="M599.204 737.475 L599.204 1423.18 L716.195 1423.18 L716.195 737.475 L599.204 737.475 L599.204 737.475  Z" fill="#009af9" fill-rule="evenodd" fill-opacity="1"/>
<polyline clip-path="url(#clip652)" style="stroke:#000000; stroke-linecap:round; stroke-linejoin:round; stroke-width:4; stroke-opacity:1; fill:none" points="599.204,737.475 599.204,1423.18 716.195,1423.18 716.195,737.475 599.204,737.475 "/>
<path clip-path="url(#clip652)" d="M716.195 609.047 L716.195 1423.18 L833.186 1423.18 L833.186 609.047 L716.195 609.047 L716.195 609.047  Z" fill="#009af9" fill-rule="evenodd" fill-opacity="1"/>
<polyline clip-path="url(#clip652)" style="stroke:#000000; stroke-linecap:round; stroke-linejoin:round; stroke-width:4; stroke-opacity:1; fill:none" points="716.195,609.047 716.195,1423.18 833.186,1423.18 833.186,609.047 716.195,609.047 "/>
<path clip-path="url(#clip652)" d="M833.186 1189.52 L833.186 1423.18 L950.177 1423.18 L950.177 1189.52 L833.186 1189.52 L833.186 1189.52  Z" fill="#009af9" fill-rule="evenodd" fill-opacity="1"/>
<polyline clip-path="url(#clip652)" style="stroke:#000000; stroke-linecap:round; stroke-linejoin:round; stroke-width:4; stroke-opacity:1; fill:none" points="833.186,1189.52 833.186,1423.18 950.177,1423.18 950.177,1189.52 833.186,1189.52 "/>
<path clip-path="url(#clip652)" d="M950.177 1354.72 L950.177 1423.18 L1067.17 1423.18 L1067.17 1354.72 L950.177 1354.72 L950.177 1354.72  Z" fill="#009af9" fill-rule="evenodd" fill-opacity="1"/>
<polyline clip-path="url(#clip652)" style="stroke:#000000; stroke-linecap:round; stroke-linejoin:round; stroke-width:4; stroke-opacity:1; fill:none" points="950.177,1354.72 950.177,1423.18 1067.17,1423.18 1067.17,1354.72 950.177,1354.72 "/>
<path clip-path="url(#clip652)" d="M1067.17 1402.81 L1067.17 1423.18 L1184.16 1423.18 L1184.16 1402.81 L1067.17 1402.81 L1067.17 1402.81  Z" fill="#009af9" fill-rule="evenodd" fill-opacity="1"/>
<polyline clip-path="url(#clip652)" style="stroke:#000000; stroke-linecap:round; stroke-linejoin:round; stroke-width:4; stroke-opacity:1; fill:none" points="1067.17,1402.81 1067.17,1423.18 1184.16,1423.18 1184.16,1402.81 1067.17,1402.81 "/>
<path clip-path="url(#clip652)" d="M1184.16 1414.69 L1184.16 1423.18 L1301.15 1423.18 L1301.15 1414.69 L1184.16 1414.69 L1184.16 1414.69  Z" fill="#009af9" fill-rule="evenodd" fill-opacity="1"/>
<polyline clip-path="url(#clip652)" style="stroke:#000000; stroke-linecap:round; stroke-linejoin:round; stroke-width:4; stroke-opacity:1; fill:none" points="1184.16,1414.69 1184.16,1423.18 1301.15,1423.18 1301.15,1414.69 1184.16,1414.69 "/>
<path clip-path="url(#clip652)" d="M1301.15 1407.9 L1301.15 1423.18 L1418.14 1423.18 L1418.14 1407.9 L1301.15 1407.9 L1301.15 1407.9  Z" fill="#009af9" fill-rule="evenodd" fill-opacity="1"/>
<polyline clip-path="url(#clip652)" style="stroke:#000000; stroke-linecap:round; stroke-linejoin:round; stroke-width:4; stroke-opacity:1; fill:none" points="1301.15,1407.9 1301.15,1423.18 1418.14,1423.18 1418.14,1407.9 1301.15,1407.9 "/>
<path clip-path="url(#clip652)" d="M1418.14 1401.68 L1418.14 1423.18 L1535.13 1423.18 L1535.13 1401.68 L1418.14 1401.68 L1418.14 1401.68  Z" fill="#009af9" fill-rule="evenodd" fill-opacity="1"/>
<polyline clip-path="url(#clip652)" style="stroke:#000000; stroke-linecap:round; stroke-linejoin:round; stroke-width:4; stroke-opacity:1; fill:none" points="1418.14,1401.68 1418.14,1423.18 1535.13,1423.18 1535.13,1401.68 1418.14,1401.68 "/>
<path clip-path="url(#clip652)" d="M1535.13 1304.94 L1535.13 1423.18 L1652.12 1423.18 L1652.12 1304.94 L1535.13 1304.94 L1535.13 1304.94  Z" fill="#009af9" fill-rule="evenodd" fill-opacity="1"/>
<polyline clip-path="url(#clip652)" style="stroke:#000000; stroke-linecap:round; stroke-linejoin:round; stroke-width:4; stroke-opacity:1; fill:none" points="1535.13,1304.94 1535.13,1423.18 1652.12,1423.18 1652.12,1304.94 1535.13,1304.94 "/>
<path clip-path="url(#clip652)" d="M1652.12 832.523 L1652.12 1423.18 L1769.11 1423.18 L1769.11 832.523 L1652.12 832.523 L1652.12 832.523  Z" fill="#009af9" fill-rule="evenodd" fill-opacity="1"/>
<polyline clip-path="url(#clip652)" style="stroke:#000000; stroke-linecap:round; stroke-linejoin:round; stroke-width:4; stroke-opacity:1; fill:none" points="1652.12,832.523 1652.12,1423.18 1769.11,1423.18 1769.11,832.523 1652.12,832.523 "/>
<path clip-path="url(#clip652)" d="M1769.11 47.2441 L1769.11 1423.18 L1886.1 1423.18 L1886.1 47.2441 L1769.11 47.2441 L1769.11 47.2441  Z" fill="#009af9" fill-rule="evenodd" fill-opacity="1"/>
<polyline clip-path="url(#clip652)" style="stroke:#000000; stroke-linecap:round; stroke-linejoin:round; stroke-width:4; stroke-opacity:1; fill:none" points="1769.11,47.2441 1769.11,1423.18 1886.1,1423.18 1886.1,47.2441 1769.11,47.2441 "/>
<path clip-path="url(#clip652)" d="M1886.1 105.518 L1886.1 1423.18 L2003.09 1423.18 L2003.09 105.518 L1886.1 105.518 L1886.1 105.518  Z" fill="#009af9" fill-rule="evenodd" fill-opacity="1"/>
<polyline clip-path="url(#clip652)" style="stroke:#000000; stroke-linecap:round; stroke-linejoin:round; stroke-width:4; stroke-opacity:1; fill:none" points="1886.1,105.518 1886.1,1423.18 2003.09,1423.18 2003.09,105.518 1886.1,105.518 "/>
<path clip-path="url(#clip652)" d="M2003.09 1171.98 L2003.09 1423.18 L2120.08 1423.18 L2120.08 1171.98 L2003.09 1171.98 L2003.09 1171.98  Z" fill="#009af9" fill-rule="evenodd" fill-opacity="1"/>
<polyline clip-path="url(#clip652)" style="stroke:#000000; stroke-linecap:round; stroke-linejoin:round; stroke-width:4; stroke-opacity:1; fill:none" points="2003.09,1171.98 2003.09,1423.18 2120.08,1423.18 2120.08,1171.98 2003.09,1171.98 "/>
<path clip-path="url(#clip652)" d="M2120.08 1418.65 L2120.08 1423.18 L2237.08 1423.18 L2237.08 1418.65 L2120.08 1418.65 L2120.08 1418.65  Z" fill="#009af9" fill-rule="evenodd" fill-opacity="1"/>
<polyline clip-path="url(#clip652)" style="stroke:#000000; stroke-linecap:round; stroke-linejoin:round; stroke-width:4; stroke-opacity:1; fill:none" points="2120.08,1418.65 2120.08,1423.18 2237.08,1423.18 2237.08,1418.65 2120.08,1418.65 "/>
<circle clip-path="url(#clip652)" style="fill:#009af9; stroke:none; fill-opacity:0" cx="423.718" cy="1422.61" r="2"/>
<circle clip-path="url(#clip652)" style="fill:#009af9; stroke:none; fill-opacity:0" cx="540.709" cy="1291.92" r="2"/>
<circle clip-path="url(#clip652)" style="fill:#009af9; stroke:none; fill-opacity:0" cx="657.7" cy="737.475" r="2"/>
<circle clip-path="url(#clip652)" style="fill:#009af9; stroke:none; fill-opacity:0" cx="774.69" cy="609.047" r="2"/>
<circle clip-path="url(#clip652)" style="fill:#009af9; stroke:none; fill-opacity:0" cx="891.681" cy="1189.52" r="2"/>
<circle clip-path="url(#clip652)" style="fill:#009af9; stroke:none; fill-opacity:0" cx="1008.67" cy="1354.72" r="2"/>
<circle clip-path="url(#clip652)" style="fill:#009af9; stroke:none; fill-opacity:0" cx="1125.66" cy="1402.81" r="2"/>
<circle clip-path="url(#clip652)" style="fill:#009af9; stroke:none; fill-opacity:0" cx="1242.65" cy="1414.69" r="2"/>
<circle clip-path="url(#clip652)" style="fill:#009af9; stroke:none; fill-opacity:0" cx="1359.64" cy="1407.9" r="2"/>
<circle clip-path="url(#clip652)" style="fill:#009af9; stroke:none; fill-opacity:0" cx="1476.64" cy="1401.68" r="2"/>
<circle clip-path="url(#clip652)" style="fill:#009af9; stroke:none; fill-opacity:0" cx="1593.63" cy="1304.94" r="2"/>
<circle clip-path="url(#clip652)" style="fill:#009af9; stroke:none; fill-opacity:0" cx="1710.62" cy="832.523" r="2"/>
<circle clip-path="url(#clip652)" style="fill:#009af9; stroke:none; fill-opacity:0" cx="1827.61" cy="47.2441" r="2"/>
<circle clip-path="url(#clip652)" style="fill:#009af9; stroke:none; fill-opacity:0" cx="1944.6" cy="105.518" r="2"/>
<circle clip-path="url(#clip652)" style="fill:#009af9; stroke:none; fill-opacity:0" cx="2061.59" cy="1171.98" r="2"/>
<circle clip-path="url(#clip652)" style="fill:#009af9; stroke:none; fill-opacity:0" cx="2178.58" cy="1418.65" r="2"/>
<path clip-path="url(#clip650)" d="M319.649 196.789 L911.195 196.789 L911.195 93.1086 L319.649 93.1086  Z" fill="#ffffff" fill-rule="evenodd" fill-opacity="1"/>
<polyline clip-path="url(#clip650)" style="stroke:#000000; stroke-linecap:round; stroke-linejoin:round; stroke-width:4; stroke-opacity:1; fill:none" points="319.649,196.789 911.195,196.789 911.195,93.1086 319.649,93.1086 319.649,196.789 "/>
<path clip-path="url(#clip650)" d="M343.018 165.685 L483.232 165.685 L483.232 124.213 L343.018 124.213 L343.018 165.685  Z" fill="#009af9" fill-rule="evenodd" fill-opacity="1"/>
<polyline clip-path="url(#clip650)" style="stroke:#000000; stroke-linecap:round; stroke-linejoin:round; stroke-width:4; stroke-opacity:1; fill:none" points="343.018,165.685 483.232,165.685 483.232,124.213 343.018,124.213 343.018,165.685 "/>
<path clip-path="url(#clip650)" d="M522.435 132.275 L516.092 149.474 L528.8 149.474 L522.435 132.275 M519.796 127.669 L525.097 127.669 L538.268 162.229 L533.407 162.229 L530.259 153.363 L514.68 153.363 L511.532 162.229 L506.602 162.229 L519.796 127.669 Z" fill="#000000" fill-rule="nonzero" fill-opacity="1" /><path clip-path="url(#clip650)" d="M547.99 145.724 L547.99 158.386 L555.49 158.386 Q559.263 158.386 561.069 156.835 Q562.898 155.261 562.898 152.043 Q562.898 148.803 561.069 147.275 Q559.263 145.724 555.49 145.724 L547.99 145.724 M547.99 131.511 L547.99 141.928 L554.911 141.928 Q558.337 141.928 560.004 140.655 Q561.694 139.358 561.694 136.719 Q561.694 134.104 560.004 132.807 Q558.337 131.511 554.911 131.511 L547.99 131.511 M543.314 127.669 L555.259 127.669 Q560.606 127.669 563.499 129.891 Q566.393 132.113 566.393 136.21 Q566.393 139.382 564.911 141.257 Q563.43 143.131 560.56 143.594 Q564.009 144.335 565.907 146.696 Q567.828 149.034 567.828 152.553 Q567.828 157.182 564.68 159.705 Q561.532 162.229 555.722 162.229 L543.314 162.229 L543.314 127.669 Z" fill="#000000" fill-rule="nonzero" fill-opacity="1" /><path clip-path="url(#clip650)" d="M589.032 130.84 Q583.939 130.84 580.93 134.636 Q577.944 138.432 577.944 144.983 Q577.944 151.511 580.93 155.307 Q583.939 159.104 589.032 159.104 Q594.124 159.104 597.087 155.307 Q600.073 151.511 600.073 144.983 Q600.073 138.432 597.087 134.636 Q594.124 130.84 589.032 130.84 M589.032 127.044 Q596.3 127.044 600.652 131.928 Q605.004 136.789 605.004 144.983 Q605.004 153.155 600.652 158.039 Q596.3 162.9 589.032 162.9 Q581.74 162.9 577.365 158.039 Q573.013 153.178 573.013 144.983 Q573.013 136.789 577.365 131.928 Q581.74 127.044 589.032 127.044 Z" fill="#000000" fill-rule="nonzero" fill-opacity="1" /><path clip-path="url(#clip650)" d="M616.994 145.724 L616.994 158.386 L624.494 158.386 Q628.268 158.386 630.073 156.835 Q631.902 155.261 631.902 152.043 Q631.902 148.803 630.073 147.275 Q628.268 145.724 624.494 145.724 L616.994 145.724 M616.994 131.511 L616.994 141.928 L623.916 141.928 Q627.342 141.928 629.008 140.655 Q630.698 139.358 630.698 136.719 Q630.698 134.104 629.008 132.807 Q627.342 131.511 623.916 131.511 L616.994 131.511 M612.319 127.669 L624.263 127.669 Q629.61 127.669 632.504 129.891 Q635.397 132.113 635.397 136.21 Q635.397 139.382 633.916 141.257 Q632.434 143.131 629.564 143.594 Q633.013 144.335 634.911 146.696 Q636.832 149.034 636.832 152.553 Q636.832 157.182 633.684 159.705 Q630.536 162.229 624.726 162.229 L612.319 162.229 L612.319 127.669 Z" fill="#000000" fill-rule="nonzero" fill-opacity="1" /><path clip-path="url(#clip650)" d="M656.392 132.275 L650.05 149.474 L662.758 149.474 L656.392 132.275 M653.753 127.669 L659.054 127.669 L672.226 162.229 L667.365 162.229 L664.216 153.363 L648.638 153.363 L645.49 162.229 L640.559 162.229 L653.753 127.669 Z" fill="#000000" fill-rule="nonzero" fill-opacity="1" /><path clip-path="url(#clip650)" d="M713.059 128.803 L713.059 133.363 Q710.397 132.09 708.036 131.465 Q705.675 130.84 703.475 130.84 Q699.656 130.84 697.573 132.321 Q695.513 133.803 695.513 136.534 Q695.513 138.826 696.878 140.007 Q698.267 141.164 702.11 141.882 L704.934 142.46 Q710.165 143.456 712.642 145.979 Q715.142 148.479 715.142 152.692 Q715.142 157.715 711.762 160.307 Q708.406 162.9 701.901 162.9 Q699.448 162.9 696.67 162.344 Q693.915 161.789 690.952 160.701 L690.952 155.886 Q693.8 157.483 696.531 158.293 Q699.263 159.104 701.901 159.104 Q705.906 159.104 708.082 157.53 Q710.258 155.956 710.258 153.039 Q710.258 150.493 708.684 149.057 Q707.133 147.622 703.568 146.905 L700.721 146.349 Q695.489 145.307 693.151 143.085 Q690.813 140.863 690.813 136.905 Q690.813 132.321 694.031 129.682 Q697.272 127.044 702.943 127.044 Q705.374 127.044 707.897 127.483 Q710.42 127.923 713.059 128.803 Z" fill="#000000" fill-rule="nonzero" fill-opacity="1" /><path clip-path="url(#clip650)" d="M734.031 149.196 Q728.869 149.196 726.878 150.377 Q724.887 151.557 724.887 154.405 Q724.887 156.673 726.369 158.016 Q727.873 159.335 730.443 159.335 Q733.985 159.335 736.114 156.835 Q738.267 154.312 738.267 150.145 L738.267 149.196 L734.031 149.196 M742.526 147.437 L742.526 162.229 L738.267 162.229 L738.267 158.293 Q736.809 160.655 734.633 161.789 Q732.457 162.9 729.309 162.9 Q725.327 162.9 722.966 160.678 Q720.628 158.432 720.628 154.682 Q720.628 150.307 723.545 148.085 Q726.485 145.863 732.295 145.863 L738.267 145.863 L738.267 145.446 Q738.267 142.507 736.322 140.909 Q734.401 139.289 730.906 139.289 Q728.684 139.289 726.577 139.821 Q724.471 140.354 722.526 141.419 L722.526 137.483 Q724.864 136.581 727.063 136.141 Q729.262 135.678 731.346 135.678 Q736.971 135.678 739.748 138.594 Q742.526 141.511 742.526 147.437 Z" fill="#000000" fill-rule="nonzero" fill-opacity="1" /><path clip-path="url(#clip650)" d="M771.484 141.28 Q773.082 138.409 775.304 137.044 Q777.526 135.678 780.535 135.678 Q784.586 135.678 786.785 138.525 Q788.984 141.349 788.984 146.581 L788.984 162.229 L784.702 162.229 L784.702 146.719 Q784.702 142.993 783.382 141.187 Q782.063 139.382 779.355 139.382 Q776.045 139.382 774.123 141.581 Q772.202 143.78 772.202 147.576 L772.202 162.229 L767.92 162.229 L767.92 146.719 Q767.92 142.969 766.6 141.187 Q765.281 139.382 762.526 139.382 Q759.262 139.382 757.341 141.604 Q755.42 143.803 755.42 147.576 L755.42 162.229 L751.137 162.229 L751.137 136.303 L755.42 136.303 L755.42 140.331 Q756.878 137.946 758.915 136.812 Q760.952 135.678 763.753 135.678 Q766.577 135.678 768.545 137.113 Q770.535 138.548 771.484 141.28 Z" fill="#000000" fill-rule="nonzero" fill-opacity="1" /><path clip-path="url(#clip650)" d="M801.6 158.34 L801.6 172.09 L797.318 172.09 L797.318 136.303 L801.6 136.303 L801.6 140.238 Q802.943 137.923 804.98 136.812 Q807.04 135.678 809.887 135.678 Q814.609 135.678 817.549 139.428 Q820.512 143.178 820.512 149.289 Q820.512 155.4 817.549 159.15 Q814.609 162.9 809.887 162.9 Q807.04 162.9 804.98 161.789 Q802.943 160.655 801.6 158.34 M816.091 149.289 Q816.091 144.59 814.146 141.928 Q812.225 139.243 808.845 139.243 Q805.466 139.243 803.521 141.928 Q801.6 144.59 801.6 149.289 Q801.6 153.988 803.521 156.673 Q805.466 159.335 808.845 159.335 Q812.225 159.335 814.146 156.673 Q816.091 153.988 816.091 149.289 Z" fill="#000000" fill-rule="nonzero" fill-opacity="1" /><path clip-path="url(#clip650)" d="M827.572 126.21 L831.831 126.21 L831.831 162.229 L827.572 162.229 L827.572 126.21 Z" fill="#000000" fill-rule="nonzero" fill-opacity="1" /><path clip-path="url(#clip650)" d="M862.919 148.201 L862.919 150.284 L843.336 150.284 Q843.614 154.682 845.975 156.997 Q848.359 159.289 852.595 159.289 Q855.049 159.289 857.34 158.687 Q859.655 158.085 861.924 156.881 L861.924 160.909 Q859.632 161.881 857.225 162.391 Q854.817 162.9 852.34 162.9 Q846.137 162.9 842.502 159.289 Q838.891 155.678 838.891 149.52 Q838.891 143.155 842.317 139.428 Q845.766 135.678 851.6 135.678 Q856.831 135.678 859.864 139.057 Q862.919 142.414 862.919 148.201 M858.66 146.951 Q858.614 143.456 856.692 141.372 Q854.794 139.289 851.646 139.289 Q848.081 139.289 845.928 141.303 Q843.799 143.317 843.475 146.974 L858.66 146.951 Z" fill="#000000" fill-rule="nonzero" fill-opacity="1" /><path clip-path="url(#clip650)" d="M886.437 137.067 L886.437 141.094 Q884.632 140.169 882.687 139.706 Q880.743 139.243 878.66 139.243 Q875.488 139.243 873.891 140.215 Q872.317 141.187 872.317 143.131 Q872.317 144.613 873.451 145.469 Q874.586 146.303 878.012 147.067 L879.47 147.391 Q884.007 148.363 885.905 150.145 Q887.826 151.905 887.826 155.076 Q887.826 158.687 884.956 160.793 Q882.109 162.9 877.109 162.9 Q875.025 162.9 872.757 162.483 Q870.512 162.09 868.012 161.28 L868.012 156.881 Q870.373 158.108 872.664 158.733 Q874.956 159.335 877.201 159.335 Q880.211 159.335 881.831 158.317 Q883.451 157.275 883.451 155.4 Q883.451 153.664 882.271 152.738 Q881.113 151.812 877.155 150.956 L875.674 150.608 Q871.715 149.775 869.956 148.062 Q868.197 146.326 868.197 143.317 Q868.197 139.659 870.789 137.669 Q873.382 135.678 878.15 135.678 Q880.512 135.678 882.595 136.025 Q884.678 136.372 886.437 137.067 Z" fill="#000000" fill-rule="nonzero" fill-opacity="1" /></svg>
